%TF.GenerationSoftware,KiCad,Pcbnew,10.0.5*%
%TF.CreationDate,2026-08-18T20:50:20-07:00*%
%TF.ProjectId,opendtu_carrier_pcb,6f70656e-6474-4755-9f63-617272696572,rev?*%
%TF.SameCoordinates,Original*%
%TF.FileFunction,Soldermask,Top*%
%TF.FilePolarity,Negative*%
%FSLAX46Y46*%
G04 Gerber Fmt 4.6, Leading zero omitted, Abs format (unit mm)*
G04 Created by KiCad (PCBNEW 10.0.5) date 2026-08-18 20:50:20*
%MOMM*%
%LPD*%
G01*
G04 APERTURE LIST*
G04 APERTURE END LIST*
G36*
X3826824Y-51138682D02*
G01*
X4035757Y-51206569D01*
X4231498Y-51306304D01*
X4409227Y-51435432D01*
X4564568Y-51590773D01*
X4693696Y-51768502D01*
X4793431Y-51964243D01*
X4861318Y-52173176D01*
X4895684Y-52390157D01*
X4895684Y-52609843D01*
X4861318Y-52826824D01*
X4793431Y-53035757D01*
X4693696Y-53231498D01*
X4564568Y-53409227D01*
X4409227Y-53564568D01*
X4231498Y-53693696D01*
X4035757Y-53793431D01*
X3826824Y-53861318D01*
X3609843Y-53895684D01*
X3390157Y-53895684D01*
X3173176Y-53861318D01*
X2964243Y-53793431D01*
X2768502Y-53693696D01*
X2590773Y-53564568D01*
X2435432Y-53409227D01*
X2306304Y-53231498D01*
X2206569Y-53035757D01*
X2138682Y-52826824D01*
X2104316Y-52609843D01*
X2104316Y-52390157D01*
X2138682Y-52173176D01*
X2206569Y-51964243D01*
X2306304Y-51768502D01*
X2435432Y-51590773D01*
X2590773Y-51435432D01*
X2768502Y-51306304D01*
X2964243Y-51206569D01*
X3173176Y-51138682D01*
X3390157Y-51104316D01*
X3609843Y-51104316D01*
X3826824Y-51138682D01*
G37*
G36*
X81826824Y-51138682D02*
G01*
X82035757Y-51206569D01*
X82231498Y-51306304D01*
X82409227Y-51435432D01*
X82564568Y-51590773D01*
X82693696Y-51768502D01*
X82793431Y-51964243D01*
X82861318Y-52173176D01*
X82895684Y-52390157D01*
X82895684Y-52609843D01*
X82861318Y-52826824D01*
X82793431Y-53035757D01*
X82693696Y-53231498D01*
X82564568Y-53409227D01*
X82409227Y-53564568D01*
X82231498Y-53693696D01*
X82035757Y-53793431D01*
X81826824Y-53861318D01*
X81609843Y-53895684D01*
X81390157Y-53895684D01*
X81173176Y-53861318D01*
X80964243Y-53793431D01*
X80768502Y-53693696D01*
X80590773Y-53564568D01*
X80435432Y-53409227D01*
X80306304Y-53231498D01*
X80206569Y-53035757D01*
X80138682Y-52826824D01*
X80104316Y-52609843D01*
X80104316Y-52390157D01*
X80138682Y-52173176D01*
X80206569Y-51964243D01*
X80306304Y-51768502D01*
X80435432Y-51590773D01*
X80590773Y-51435432D01*
X80768502Y-51306304D01*
X80964243Y-51206569D01*
X81173176Y-51138682D01*
X81390157Y-51104316D01*
X81609843Y-51104316D01*
X81826824Y-51138682D01*
G37*
G36*
X7579134Y-50353806D02*
G01*
X7595355Y-50364645D01*
X7606194Y-50380866D01*
X7610000Y-50400000D01*
X7610000Y-52600000D01*
X7606194Y-52619134D01*
X7595355Y-52635355D01*
X7579134Y-52646194D01*
X7560000Y-52650000D01*
X5360000Y-52650000D01*
X5340866Y-52646194D01*
X5324645Y-52635355D01*
X5313806Y-52619134D01*
X5310000Y-52600000D01*
X5310000Y-50400000D01*
X5313806Y-50380866D01*
X5324645Y-50364645D01*
X5340866Y-50353806D01*
X5360000Y-50350000D01*
X7560000Y-50350000D01*
X7579134Y-50353806D01*
G37*
G36*
X22539134Y-50353806D02*
G01*
X22555355Y-50364645D01*
X22566194Y-50380866D01*
X22570000Y-50400000D01*
X22570000Y-52600000D01*
X22566194Y-52619134D01*
X22555355Y-52635355D01*
X22539134Y-52646194D01*
X22520000Y-52650000D01*
X20320000Y-52650000D01*
X20300866Y-52646194D01*
X20284645Y-52635355D01*
X20273806Y-52619134D01*
X20270000Y-52600000D01*
X20270000Y-50400000D01*
X20273806Y-50380866D01*
X20284645Y-50364645D01*
X20300866Y-50353806D01*
X20320000Y-50350000D01*
X22520000Y-50350000D01*
X22539134Y-50353806D01*
G37*
G36*
X43039134Y-50353806D02*
G01*
X43055355Y-50364645D01*
X43066194Y-50380866D01*
X43070000Y-50400000D01*
X43070000Y-52600000D01*
X43066194Y-52619134D01*
X43055355Y-52635355D01*
X43039134Y-52646194D01*
X43020000Y-52650000D01*
X40820000Y-52650000D01*
X40800866Y-52646194D01*
X40784645Y-52635355D01*
X40773806Y-52619134D01*
X40770000Y-52600000D01*
X40770000Y-50400000D01*
X40773806Y-50380866D01*
X40784645Y-50364645D01*
X40800866Y-50353806D01*
X40820000Y-50350000D01*
X43020000Y-50350000D01*
X43039134Y-50353806D01*
G37*
G36*
X63499134Y-50353806D02*
G01*
X63515355Y-50364645D01*
X63526194Y-50380866D01*
X63530000Y-50400000D01*
X63530000Y-52600000D01*
X63526194Y-52619134D01*
X63515355Y-52635355D01*
X63499134Y-52646194D01*
X63480000Y-52650000D01*
X61280000Y-52650000D01*
X61260866Y-52646194D01*
X61244645Y-52635355D01*
X61233806Y-52619134D01*
X61230000Y-52600000D01*
X61230000Y-50400000D01*
X61233806Y-50380866D01*
X61244645Y-50364645D01*
X61260866Y-50353806D01*
X61280000Y-50350000D01*
X63480000Y-50350000D01*
X63499134Y-50353806D01*
G37*
G36*
X11808462Y-50381775D02*
G01*
X11980086Y-50437539D01*
X12140873Y-50519464D01*
X12286865Y-50625533D01*
X12414467Y-50753135D01*
X12520536Y-50899127D01*
X12602461Y-51059914D01*
X12658225Y-51231538D01*
X12686455Y-51409772D01*
X12686455Y-51590228D01*
X12658225Y-51768462D01*
X12602461Y-51940086D01*
X12520536Y-52100873D01*
X12414467Y-52246865D01*
X12286865Y-52374467D01*
X12140873Y-52480536D01*
X11980086Y-52562461D01*
X11808462Y-52618225D01*
X11630228Y-52646455D01*
X11449772Y-52646455D01*
X11271538Y-52618225D01*
X11099914Y-52562461D01*
X10939127Y-52480536D01*
X10793135Y-52374467D01*
X10665533Y-52246865D01*
X10559464Y-52100873D01*
X10477539Y-51940086D01*
X10421775Y-51768462D01*
X10393545Y-51590228D01*
X10393545Y-51409772D01*
X10421775Y-51231538D01*
X10477539Y-51059914D01*
X10559464Y-50899127D01*
X10665533Y-50753135D01*
X10793135Y-50625533D01*
X10939127Y-50519464D01*
X11099914Y-50437539D01*
X11271538Y-50381775D01*
X11449772Y-50353545D01*
X11630228Y-50353545D01*
X11808462Y-50381775D01*
G37*
G36*
X26768462Y-50381775D02*
G01*
X26940086Y-50437539D01*
X27100873Y-50519464D01*
X27246865Y-50625533D01*
X27374467Y-50753135D01*
X27480536Y-50899127D01*
X27562461Y-51059914D01*
X27618225Y-51231538D01*
X27646455Y-51409772D01*
X27646455Y-51590228D01*
X27618225Y-51768462D01*
X27562461Y-51940086D01*
X27480536Y-52100873D01*
X27374467Y-52246865D01*
X27246865Y-52374467D01*
X27100873Y-52480536D01*
X26940086Y-52562461D01*
X26768462Y-52618225D01*
X26590228Y-52646455D01*
X26409772Y-52646455D01*
X26231538Y-52618225D01*
X26059914Y-52562461D01*
X25899127Y-52480536D01*
X25753135Y-52374467D01*
X25625533Y-52246865D01*
X25519464Y-52100873D01*
X25437539Y-51940086D01*
X25381775Y-51768462D01*
X25353545Y-51590228D01*
X25353545Y-51409772D01*
X25381775Y-51231538D01*
X25437539Y-51059914D01*
X25519464Y-50899127D01*
X25625533Y-50753135D01*
X25753135Y-50625533D01*
X25899127Y-50519464D01*
X26059914Y-50437539D01*
X26231538Y-50381775D01*
X26409772Y-50353545D01*
X26590228Y-50353545D01*
X26768462Y-50381775D01*
G37*
G36*
X31848462Y-50381775D02*
G01*
X32020086Y-50437539D01*
X32180873Y-50519464D01*
X32326865Y-50625533D01*
X32454467Y-50753135D01*
X32560536Y-50899127D01*
X32642461Y-51059914D01*
X32698225Y-51231538D01*
X32726455Y-51409772D01*
X32726455Y-51590228D01*
X32698225Y-51768462D01*
X32642461Y-51940086D01*
X32560536Y-52100873D01*
X32454467Y-52246865D01*
X32326865Y-52374467D01*
X32180873Y-52480536D01*
X32020086Y-52562461D01*
X31848462Y-52618225D01*
X31670228Y-52646455D01*
X31489772Y-52646455D01*
X31311538Y-52618225D01*
X31139914Y-52562461D01*
X30979127Y-52480536D01*
X30833135Y-52374467D01*
X30705533Y-52246865D01*
X30599464Y-52100873D01*
X30517539Y-51940086D01*
X30461775Y-51768462D01*
X30433545Y-51590228D01*
X30433545Y-51409772D01*
X30461775Y-51231538D01*
X30517539Y-51059914D01*
X30599464Y-50899127D01*
X30705533Y-50753135D01*
X30833135Y-50625533D01*
X30979127Y-50519464D01*
X31139914Y-50437539D01*
X31311538Y-50381775D01*
X31489772Y-50353545D01*
X31670228Y-50353545D01*
X31848462Y-50381775D01*
G37*
G36*
X47268462Y-50381775D02*
G01*
X47440086Y-50437539D01*
X47600873Y-50519464D01*
X47746865Y-50625533D01*
X47874467Y-50753135D01*
X47980536Y-50899127D01*
X48062461Y-51059914D01*
X48118225Y-51231538D01*
X48146455Y-51409772D01*
X48146455Y-51590228D01*
X48118225Y-51768462D01*
X48062461Y-51940086D01*
X47980536Y-52100873D01*
X47874467Y-52246865D01*
X47746865Y-52374467D01*
X47600873Y-52480536D01*
X47440086Y-52562461D01*
X47268462Y-52618225D01*
X47090228Y-52646455D01*
X46909772Y-52646455D01*
X46731538Y-52618225D01*
X46559914Y-52562461D01*
X46399127Y-52480536D01*
X46253135Y-52374467D01*
X46125533Y-52246865D01*
X46019464Y-52100873D01*
X45937539Y-51940086D01*
X45881775Y-51768462D01*
X45853545Y-51590228D01*
X45853545Y-51409772D01*
X45881775Y-51231538D01*
X45937539Y-51059914D01*
X46019464Y-50899127D01*
X46125533Y-50753135D01*
X46253135Y-50625533D01*
X46399127Y-50519464D01*
X46559914Y-50437539D01*
X46731538Y-50381775D01*
X46909772Y-50353545D01*
X47090228Y-50353545D01*
X47268462Y-50381775D01*
G37*
G36*
X52348462Y-50381775D02*
G01*
X52520086Y-50437539D01*
X52680873Y-50519464D01*
X52826865Y-50625533D01*
X52954467Y-50753135D01*
X53060536Y-50899127D01*
X53142461Y-51059914D01*
X53198225Y-51231538D01*
X53226455Y-51409772D01*
X53226455Y-51590228D01*
X53198225Y-51768462D01*
X53142461Y-51940086D01*
X53060536Y-52100873D01*
X52954467Y-52246865D01*
X52826865Y-52374467D01*
X52680873Y-52480536D01*
X52520086Y-52562461D01*
X52348462Y-52618225D01*
X52170228Y-52646455D01*
X51989772Y-52646455D01*
X51811538Y-52618225D01*
X51639914Y-52562461D01*
X51479127Y-52480536D01*
X51333135Y-52374467D01*
X51205533Y-52246865D01*
X51099464Y-52100873D01*
X51017539Y-51940086D01*
X50961775Y-51768462D01*
X50933545Y-51590228D01*
X50933545Y-51409772D01*
X50961775Y-51231538D01*
X51017539Y-51059914D01*
X51099464Y-50899127D01*
X51205533Y-50753135D01*
X51333135Y-50625533D01*
X51479127Y-50519464D01*
X51639914Y-50437539D01*
X51811538Y-50381775D01*
X51989772Y-50353545D01*
X52170228Y-50353545D01*
X52348462Y-50381775D01*
G37*
G36*
X67728462Y-50381775D02*
G01*
X67900086Y-50437539D01*
X68060873Y-50519464D01*
X68206865Y-50625533D01*
X68334467Y-50753135D01*
X68440536Y-50899127D01*
X68522461Y-51059914D01*
X68578225Y-51231538D01*
X68606455Y-51409772D01*
X68606455Y-51590228D01*
X68578225Y-51768462D01*
X68522461Y-51940086D01*
X68440536Y-52100873D01*
X68334467Y-52246865D01*
X68206865Y-52374467D01*
X68060873Y-52480536D01*
X67900086Y-52562461D01*
X67728462Y-52618225D01*
X67550228Y-52646455D01*
X67369772Y-52646455D01*
X67191538Y-52618225D01*
X67019914Y-52562461D01*
X66859127Y-52480536D01*
X66713135Y-52374467D01*
X66585533Y-52246865D01*
X66479464Y-52100873D01*
X66397539Y-51940086D01*
X66341775Y-51768462D01*
X66313545Y-51590228D01*
X66313545Y-51409772D01*
X66341775Y-51231538D01*
X66397539Y-51059914D01*
X66479464Y-50899127D01*
X66585533Y-50753135D01*
X66713135Y-50625533D01*
X66859127Y-50519464D01*
X67019914Y-50437539D01*
X67191538Y-50381775D01*
X67369772Y-50353545D01*
X67550228Y-50353545D01*
X67728462Y-50381775D01*
G37*
G36*
X72808462Y-50381775D02*
G01*
X72980086Y-50437539D01*
X73140873Y-50519464D01*
X73286865Y-50625533D01*
X73414467Y-50753135D01*
X73520536Y-50899127D01*
X73602461Y-51059914D01*
X73658225Y-51231538D01*
X73686455Y-51409772D01*
X73686455Y-51590228D01*
X73658225Y-51768462D01*
X73602461Y-51940086D01*
X73520536Y-52100873D01*
X73414467Y-52246865D01*
X73286865Y-52374467D01*
X73140873Y-52480536D01*
X72980086Y-52562461D01*
X72808462Y-52618225D01*
X72630228Y-52646455D01*
X72449772Y-52646455D01*
X72271538Y-52618225D01*
X72099914Y-52562461D01*
X71939127Y-52480536D01*
X71793135Y-52374467D01*
X71665533Y-52246865D01*
X71559464Y-52100873D01*
X71477539Y-51940086D01*
X71421775Y-51768462D01*
X71393545Y-51590228D01*
X71393545Y-51409772D01*
X71421775Y-51231538D01*
X71477539Y-51059914D01*
X71559464Y-50899127D01*
X71665533Y-50753135D01*
X71793135Y-50625533D01*
X71939127Y-50519464D01*
X72099914Y-50437539D01*
X72271538Y-50381775D01*
X72449772Y-50353545D01*
X72630228Y-50353545D01*
X72808462Y-50381775D01*
G37*
G36*
X77888462Y-50381775D02*
G01*
X78060086Y-50437539D01*
X78220873Y-50519464D01*
X78366865Y-50625533D01*
X78494467Y-50753135D01*
X78600536Y-50899127D01*
X78682461Y-51059914D01*
X78738225Y-51231538D01*
X78766455Y-51409772D01*
X78766455Y-51590228D01*
X78738225Y-51768462D01*
X78682461Y-51940086D01*
X78600536Y-52100873D01*
X78494467Y-52246865D01*
X78366865Y-52374467D01*
X78220873Y-52480536D01*
X78060086Y-52562461D01*
X77888462Y-52618225D01*
X77710228Y-52646455D01*
X77529772Y-52646455D01*
X77351538Y-52618225D01*
X77179914Y-52562461D01*
X77019127Y-52480536D01*
X76873135Y-52374467D01*
X76745533Y-52246865D01*
X76639464Y-52100873D01*
X76557539Y-51940086D01*
X76501775Y-51768462D01*
X76473545Y-51590228D01*
X76473545Y-51409772D01*
X76501775Y-51231538D01*
X76557539Y-51059914D01*
X76639464Y-50899127D01*
X76745533Y-50753135D01*
X76873135Y-50625533D01*
X77019127Y-50519464D01*
X77179914Y-50437539D01*
X77351538Y-50381775D01*
X77529772Y-50353545D01*
X77710228Y-50353545D01*
X77888462Y-50381775D01*
G37*
G36*
X22769134Y-37098806D02*
G01*
X22785355Y-37109645D01*
X22796194Y-37125866D01*
X22800000Y-37145000D01*
X22800000Y-37745000D01*
X22796194Y-37764134D01*
X22785355Y-37780355D01*
X22769134Y-37791194D01*
X22750000Y-37795000D01*
X20950000Y-37795000D01*
X20930866Y-37791194D01*
X20914645Y-37780355D01*
X20903806Y-37764134D01*
X20900000Y-37745000D01*
X20900000Y-37145000D01*
X20903806Y-37125866D01*
X20914645Y-37109645D01*
X20930866Y-37098806D01*
X20950000Y-37095000D01*
X22750000Y-37095000D01*
X22769134Y-37098806D01*
G37*
G36*
X32069134Y-37098806D02*
G01*
X32085355Y-37109645D01*
X32096194Y-37125866D01*
X32100000Y-37145000D01*
X32100000Y-37745000D01*
X32096194Y-37764134D01*
X32085355Y-37780355D01*
X32069134Y-37791194D01*
X32050000Y-37795000D01*
X30250000Y-37795000D01*
X30230866Y-37791194D01*
X30214645Y-37780355D01*
X30203806Y-37764134D01*
X30200000Y-37745000D01*
X30200000Y-37145000D01*
X30203806Y-37125866D01*
X30214645Y-37109645D01*
X30230866Y-37098806D01*
X30250000Y-37095000D01*
X32050000Y-37095000D01*
X32069134Y-37098806D01*
G37*
G36*
X43269134Y-37098806D02*
G01*
X43285355Y-37109645D01*
X43296194Y-37125866D01*
X43300000Y-37145000D01*
X43300000Y-37745000D01*
X43296194Y-37764134D01*
X43285355Y-37780355D01*
X43269134Y-37791194D01*
X43250000Y-37795000D01*
X41450000Y-37795000D01*
X41430866Y-37791194D01*
X41414645Y-37780355D01*
X41403806Y-37764134D01*
X41400000Y-37745000D01*
X41400000Y-37145000D01*
X41403806Y-37125866D01*
X41414645Y-37109645D01*
X41430866Y-37098806D01*
X41450000Y-37095000D01*
X43250000Y-37095000D01*
X43269134Y-37098806D01*
G37*
G36*
X52569134Y-37098806D02*
G01*
X52585355Y-37109645D01*
X52596194Y-37125866D01*
X52600000Y-37145000D01*
X52600000Y-37745000D01*
X52596194Y-37764134D01*
X52585355Y-37780355D01*
X52569134Y-37791194D01*
X52550000Y-37795000D01*
X50750000Y-37795000D01*
X50730866Y-37791194D01*
X50714645Y-37780355D01*
X50703806Y-37764134D01*
X50700000Y-37745000D01*
X50700000Y-37145000D01*
X50703806Y-37125866D01*
X50714645Y-37109645D01*
X50730866Y-37098806D01*
X50750000Y-37095000D01*
X52550000Y-37095000D01*
X52569134Y-37098806D01*
G37*
G36*
X22769134Y-34558806D02*
G01*
X22785355Y-34569645D01*
X22796194Y-34585866D01*
X22800000Y-34605000D01*
X22800000Y-35205000D01*
X22796194Y-35224134D01*
X22785355Y-35240355D01*
X22769134Y-35251194D01*
X22750000Y-35255000D01*
X20950000Y-35255000D01*
X20930866Y-35251194D01*
X20914645Y-35240355D01*
X20903806Y-35224134D01*
X20900000Y-35205000D01*
X20900000Y-34605000D01*
X20903806Y-34585866D01*
X20914645Y-34569645D01*
X20930866Y-34558806D01*
X20950000Y-34555000D01*
X22750000Y-34555000D01*
X22769134Y-34558806D01*
G37*
G36*
X68119134Y-34558806D02*
G01*
X68135355Y-34569645D01*
X68146194Y-34585866D01*
X68150000Y-34605000D01*
X68150000Y-35205000D01*
X68146194Y-35224134D01*
X68135355Y-35240355D01*
X68119134Y-35251194D01*
X68100000Y-35255000D01*
X66700000Y-35255000D01*
X66680866Y-35251194D01*
X66664645Y-35240355D01*
X66653806Y-35224134D01*
X66650000Y-35205000D01*
X66650000Y-34605000D01*
X66653806Y-34585866D01*
X66664645Y-34569645D01*
X66680866Y-34558806D01*
X66700000Y-34555000D01*
X68100000Y-34555000D01*
X68119134Y-34558806D01*
G37*
G36*
X73319134Y-34558806D02*
G01*
X73335355Y-34569645D01*
X73346194Y-34585866D01*
X73350000Y-34605000D01*
X73350000Y-35205000D01*
X73346194Y-35224134D01*
X73335355Y-35240355D01*
X73319134Y-35251194D01*
X73300000Y-35255000D01*
X71900000Y-35255000D01*
X71880866Y-35251194D01*
X71864645Y-35240355D01*
X71853806Y-35224134D01*
X71850000Y-35205000D01*
X71850000Y-34605000D01*
X71853806Y-34585866D01*
X71864645Y-34569645D01*
X71880866Y-34558806D01*
X71900000Y-34555000D01*
X73300000Y-34555000D01*
X73319134Y-34558806D01*
G37*
G36*
X22769134Y-33288806D02*
G01*
X22785355Y-33299645D01*
X22796194Y-33315866D01*
X22800000Y-33335000D01*
X22800000Y-33935000D01*
X22796194Y-33954134D01*
X22785355Y-33970355D01*
X22769134Y-33981194D01*
X22750000Y-33985000D01*
X20950000Y-33985000D01*
X20930866Y-33981194D01*
X20914645Y-33970355D01*
X20903806Y-33954134D01*
X20900000Y-33935000D01*
X20900000Y-33335000D01*
X20903806Y-33315866D01*
X20914645Y-33299645D01*
X20930866Y-33288806D01*
X20950000Y-33285000D01*
X22750000Y-33285000D01*
X22769134Y-33288806D01*
G37*
G36*
X32069134Y-32018806D02*
G01*
X32085355Y-32029645D01*
X32095342Y-32044591D01*
X32098823Y-32048072D01*
X32106671Y-32053316D01*
X32109134Y-32053806D01*
X32125355Y-32064645D01*
X32136194Y-32080866D01*
X32140000Y-32100000D01*
X32140000Y-33900000D01*
X32136194Y-33919134D01*
X32125355Y-33935355D01*
X32109134Y-33946194D01*
X32106670Y-33946684D01*
X32098824Y-33951927D01*
X32095342Y-33955408D01*
X32085355Y-33970355D01*
X32069134Y-33981194D01*
X32050000Y-33985000D01*
X30250000Y-33985000D01*
X30230866Y-33981194D01*
X30214645Y-33970355D01*
X30203806Y-33954134D01*
X30200000Y-33935000D01*
X30200000Y-33335000D01*
X30203806Y-33315866D01*
X30214645Y-33299645D01*
X30229152Y-33289951D01*
X30240000Y-33269655D01*
X30240000Y-32730343D01*
X30229153Y-32710049D01*
X30214645Y-32700355D01*
X30203806Y-32684134D01*
X30200000Y-32665000D01*
X30200000Y-32065000D01*
X30203806Y-32045866D01*
X30214645Y-32029645D01*
X30230866Y-32018806D01*
X30250000Y-32015000D01*
X32050000Y-32015000D01*
X32069134Y-32018806D01*
G37*
G36*
X52569134Y-33288806D02*
G01*
X52585355Y-33299645D01*
X52596194Y-33315866D01*
X52600000Y-33335000D01*
X52600000Y-33935000D01*
X52596194Y-33954134D01*
X52585355Y-33970355D01*
X52569134Y-33981194D01*
X52550000Y-33985000D01*
X50750000Y-33985000D01*
X50730866Y-33981194D01*
X50714645Y-33970355D01*
X50703806Y-33954134D01*
X50700000Y-33935000D01*
X50700000Y-33335000D01*
X50703806Y-33315866D01*
X50714645Y-33299645D01*
X50730866Y-33288806D01*
X50750000Y-33285000D01*
X52550000Y-33285000D01*
X52569134Y-33288806D01*
G37*
G36*
X68119134Y-33288806D02*
G01*
X68135355Y-33299645D01*
X68146194Y-33315866D01*
X68150000Y-33335000D01*
X68150000Y-33935000D01*
X68146194Y-33954134D01*
X68135355Y-33970355D01*
X68119134Y-33981194D01*
X68100000Y-33985000D01*
X66700000Y-33985000D01*
X66680866Y-33981194D01*
X66664645Y-33970355D01*
X66653806Y-33954134D01*
X66650000Y-33935000D01*
X66650000Y-33335000D01*
X66653806Y-33315866D01*
X66664645Y-33299645D01*
X66680866Y-33288806D01*
X66700000Y-33285000D01*
X68100000Y-33285000D01*
X68119134Y-33288806D01*
G37*
G36*
X73319134Y-33288806D02*
G01*
X73335355Y-33299645D01*
X73346194Y-33315866D01*
X73350000Y-33335000D01*
X73350000Y-33935000D01*
X73346194Y-33954134D01*
X73335355Y-33970355D01*
X73319134Y-33981194D01*
X73300000Y-33985000D01*
X71900000Y-33985000D01*
X71880866Y-33981194D01*
X71864645Y-33970355D01*
X71853806Y-33954134D01*
X71850000Y-33935000D01*
X71850000Y-33335000D01*
X71853806Y-33315866D01*
X71864645Y-33299645D01*
X71880866Y-33288806D01*
X71900000Y-33285000D01*
X73300000Y-33285000D01*
X73319134Y-33288806D01*
G37*
G36*
X34005770Y-32090907D02*
G01*
X34177827Y-32162175D01*
X34332674Y-32265640D01*
X34464360Y-32397326D01*
X34567825Y-32552173D01*
X34639093Y-32724230D01*
X34675425Y-32906884D01*
X34675425Y-33093116D01*
X34639093Y-33275770D01*
X34567825Y-33447827D01*
X34464360Y-33602674D01*
X34332674Y-33734360D01*
X34177827Y-33837825D01*
X34005770Y-33909093D01*
X33823116Y-33945425D01*
X33636884Y-33945425D01*
X33454230Y-33909093D01*
X33282173Y-33837825D01*
X33127326Y-33734360D01*
X32995640Y-33602674D01*
X32892175Y-33447827D01*
X32820907Y-33275770D01*
X32784575Y-33093116D01*
X32784575Y-32906884D01*
X32820907Y-32724230D01*
X32892175Y-32552173D01*
X32995640Y-32397326D01*
X33127326Y-32265640D01*
X33282173Y-32162175D01*
X33454230Y-32090907D01*
X33636884Y-32054575D01*
X33823116Y-32054575D01*
X34005770Y-32090907D01*
G37*
G36*
X36545770Y-32090907D02*
G01*
X36717827Y-32162175D01*
X36872674Y-32265640D01*
X37004360Y-32397326D01*
X37107825Y-32552173D01*
X37179093Y-32724230D01*
X37215425Y-32906884D01*
X37215425Y-33093116D01*
X37179093Y-33275770D01*
X37107825Y-33447827D01*
X37004360Y-33602674D01*
X36872674Y-33734360D01*
X36717827Y-33837825D01*
X36545770Y-33909093D01*
X36363116Y-33945425D01*
X36176884Y-33945425D01*
X35994230Y-33909093D01*
X35822173Y-33837825D01*
X35667326Y-33734360D01*
X35535640Y-33602674D01*
X35432175Y-33447827D01*
X35360907Y-33275770D01*
X35324575Y-33093116D01*
X35324575Y-32906884D01*
X35360907Y-32724230D01*
X35432175Y-32552173D01*
X35535640Y-32397326D01*
X35667326Y-32265640D01*
X35822173Y-32162175D01*
X35994230Y-32090907D01*
X36176884Y-32054575D01*
X36363116Y-32054575D01*
X36545770Y-32090907D01*
G37*
G36*
X39085770Y-32090907D02*
G01*
X39257827Y-32162175D01*
X39412674Y-32265640D01*
X39544360Y-32397326D01*
X39647825Y-32552173D01*
X39719093Y-32724230D01*
X39755425Y-32906884D01*
X39755425Y-33093116D01*
X39719093Y-33275770D01*
X39647825Y-33447827D01*
X39544360Y-33602674D01*
X39412674Y-33734360D01*
X39257827Y-33837825D01*
X39085770Y-33909093D01*
X38903116Y-33945425D01*
X38716884Y-33945425D01*
X38534230Y-33909093D01*
X38362173Y-33837825D01*
X38207326Y-33734360D01*
X38075640Y-33602674D01*
X37972175Y-33447827D01*
X37900907Y-33275770D01*
X37864575Y-33093116D01*
X37864575Y-32906884D01*
X37900907Y-32724230D01*
X37972175Y-32552173D01*
X38075640Y-32397326D01*
X38207326Y-32265640D01*
X38362173Y-32162175D01*
X38534230Y-32090907D01*
X38716884Y-32054575D01*
X38903116Y-32054575D01*
X39085770Y-32090907D01*
G37*
G36*
X22769134Y-32018806D02*
G01*
X22785355Y-32029645D01*
X22796194Y-32045866D01*
X22800000Y-32065000D01*
X22800000Y-32665000D01*
X22796194Y-32684134D01*
X22785355Y-32700355D01*
X22769134Y-32711194D01*
X22750000Y-32715000D01*
X20950000Y-32715000D01*
X20930866Y-32711194D01*
X20914645Y-32700355D01*
X20903806Y-32684134D01*
X20900000Y-32665000D01*
X20900000Y-32065000D01*
X20903806Y-32045866D01*
X20914645Y-32029645D01*
X20930866Y-32018806D01*
X20950000Y-32015000D01*
X22750000Y-32015000D01*
X22769134Y-32018806D01*
G37*
G36*
X43269134Y-32018806D02*
G01*
X43285355Y-32029645D01*
X43296194Y-32045866D01*
X43300000Y-32065000D01*
X43300000Y-32665000D01*
X43296194Y-32684134D01*
X43285355Y-32700355D01*
X43269134Y-32711194D01*
X43250000Y-32715000D01*
X41450000Y-32715000D01*
X41430866Y-32711194D01*
X41414645Y-32700355D01*
X41403806Y-32684134D01*
X41400000Y-32665000D01*
X41400000Y-32065000D01*
X41403806Y-32045866D01*
X41414645Y-32029645D01*
X41430866Y-32018806D01*
X41450000Y-32015000D01*
X43250000Y-32015000D01*
X43269134Y-32018806D01*
G37*
G36*
X52569134Y-32018806D02*
G01*
X52585355Y-32029645D01*
X52596194Y-32045866D01*
X52600000Y-32065000D01*
X52600000Y-32665000D01*
X52596194Y-32684134D01*
X52585355Y-32700355D01*
X52569134Y-32711194D01*
X52550000Y-32715000D01*
X50750000Y-32715000D01*
X50730866Y-32711194D01*
X50714645Y-32700355D01*
X50703806Y-32684134D01*
X50700000Y-32665000D01*
X50700000Y-32065000D01*
X50703806Y-32045866D01*
X50714645Y-32029645D01*
X50730866Y-32018806D01*
X50750000Y-32015000D01*
X52550000Y-32015000D01*
X52569134Y-32018806D01*
G37*
G36*
X68119134Y-32018806D02*
G01*
X68135355Y-32029645D01*
X68146194Y-32045866D01*
X68150000Y-32065000D01*
X68150000Y-32665000D01*
X68146194Y-32684134D01*
X68135355Y-32700355D01*
X68119134Y-32711194D01*
X68100000Y-32715000D01*
X66700000Y-32715000D01*
X66680866Y-32711194D01*
X66664645Y-32700355D01*
X66653806Y-32684134D01*
X66650000Y-32665000D01*
X66650000Y-32065000D01*
X66653806Y-32045866D01*
X66664645Y-32029645D01*
X66680866Y-32018806D01*
X66700000Y-32015000D01*
X68100000Y-32015000D01*
X68119134Y-32018806D01*
G37*
G36*
X73319134Y-32018806D02*
G01*
X73335355Y-32029645D01*
X73346194Y-32045866D01*
X73350000Y-32065000D01*
X73350000Y-32665000D01*
X73346194Y-32684134D01*
X73335355Y-32700355D01*
X73319134Y-32711194D01*
X73300000Y-32715000D01*
X71900000Y-32715000D01*
X71880866Y-32711194D01*
X71864645Y-32700355D01*
X71853806Y-32684134D01*
X71850000Y-32665000D01*
X71850000Y-32065000D01*
X71853806Y-32045866D01*
X71864645Y-32029645D01*
X71880866Y-32018806D01*
X71900000Y-32015000D01*
X73300000Y-32015000D01*
X73319134Y-32018806D01*
G37*
G36*
X22769134Y-30748806D02*
G01*
X22785355Y-30759645D01*
X22796194Y-30775866D01*
X22800000Y-30795000D01*
X22800000Y-31395000D01*
X22796194Y-31414134D01*
X22785355Y-31430355D01*
X22769134Y-31441194D01*
X22750000Y-31445000D01*
X20950000Y-31445000D01*
X20930866Y-31441194D01*
X20914645Y-31430355D01*
X20903806Y-31414134D01*
X20900000Y-31395000D01*
X20900000Y-30795000D01*
X20903806Y-30775866D01*
X20914645Y-30759645D01*
X20930866Y-30748806D01*
X20950000Y-30745000D01*
X22750000Y-30745000D01*
X22769134Y-30748806D01*
G37*
G36*
X43269134Y-30748806D02*
G01*
X43285355Y-30759645D01*
X43296194Y-30775866D01*
X43300000Y-30795000D01*
X43300000Y-31395000D01*
X43296194Y-31414134D01*
X43285355Y-31430355D01*
X43269134Y-31441194D01*
X43250000Y-31445000D01*
X41450000Y-31445000D01*
X41430866Y-31441194D01*
X41414645Y-31430355D01*
X41403806Y-31414134D01*
X41400000Y-31395000D01*
X41400000Y-30795000D01*
X41403806Y-30775866D01*
X41414645Y-30759645D01*
X41430866Y-30748806D01*
X41450000Y-30745000D01*
X43250000Y-30745000D01*
X43269134Y-30748806D01*
G37*
G36*
X68119134Y-30748806D02*
G01*
X68135355Y-30759645D01*
X68146194Y-30775866D01*
X68150000Y-30795000D01*
X68150000Y-31395000D01*
X68146194Y-31414134D01*
X68135355Y-31430355D01*
X68119134Y-31441194D01*
X68100000Y-31445000D01*
X66700000Y-31445000D01*
X66680866Y-31441194D01*
X66664645Y-31430355D01*
X66653806Y-31414134D01*
X66650000Y-31395000D01*
X66650000Y-30795000D01*
X66653806Y-30775866D01*
X66664645Y-30759645D01*
X66680866Y-30748806D01*
X66700000Y-30745000D01*
X68100000Y-30745000D01*
X68119134Y-30748806D01*
G37*
G36*
X73319134Y-30748806D02*
G01*
X73335355Y-30759645D01*
X73346194Y-30775866D01*
X73350000Y-30795000D01*
X73350000Y-31395000D01*
X73346194Y-31414134D01*
X73335355Y-31430355D01*
X73319134Y-31441194D01*
X73300000Y-31445000D01*
X71900000Y-31445000D01*
X71880866Y-31441194D01*
X71864645Y-31430355D01*
X71853806Y-31414134D01*
X71850000Y-31395000D01*
X71850000Y-30795000D01*
X71853806Y-30775866D01*
X71864645Y-30759645D01*
X71880866Y-30748806D01*
X71900000Y-30745000D01*
X73300000Y-30745000D01*
X73319134Y-30748806D01*
G37*
G36*
X22769134Y-29478806D02*
G01*
X22785355Y-29489645D01*
X22796194Y-29505866D01*
X22800000Y-29525000D01*
X22800000Y-30125000D01*
X22796194Y-30144134D01*
X22785355Y-30160355D01*
X22769134Y-30171194D01*
X22750000Y-30175000D01*
X20950000Y-30175000D01*
X20930866Y-30171194D01*
X20914645Y-30160355D01*
X20903806Y-30144134D01*
X20900000Y-30125000D01*
X20900000Y-29525000D01*
X20903806Y-29505866D01*
X20914645Y-29489645D01*
X20930866Y-29478806D01*
X20950000Y-29475000D01*
X22750000Y-29475000D01*
X22769134Y-29478806D01*
G37*
G36*
X43269134Y-29478806D02*
G01*
X43285355Y-29489645D01*
X43296194Y-29505866D01*
X43300000Y-29525000D01*
X43300000Y-30125000D01*
X43296194Y-30144134D01*
X43285355Y-30160355D01*
X43269134Y-30171194D01*
X43250000Y-30175000D01*
X41450000Y-30175000D01*
X41430866Y-30171194D01*
X41414645Y-30160355D01*
X41403806Y-30144134D01*
X41400000Y-30125000D01*
X41400000Y-29525000D01*
X41403806Y-29505866D01*
X41414645Y-29489645D01*
X41430866Y-29478806D01*
X41450000Y-29475000D01*
X43250000Y-29475000D01*
X43269134Y-29478806D01*
G37*
G36*
X22769134Y-28208806D02*
G01*
X22785355Y-28219645D01*
X22796194Y-28235866D01*
X22800000Y-28255000D01*
X22800000Y-28855000D01*
X22796194Y-28874134D01*
X22785355Y-28890355D01*
X22769134Y-28901194D01*
X22750000Y-28905000D01*
X20950000Y-28905000D01*
X20930866Y-28901194D01*
X20914645Y-28890355D01*
X20903806Y-28874134D01*
X20900000Y-28855000D01*
X20900000Y-28255000D01*
X20903806Y-28235866D01*
X20914645Y-28219645D01*
X20930866Y-28208806D01*
X20950000Y-28205000D01*
X22750000Y-28205000D01*
X22769134Y-28208806D01*
G37*
G36*
X32069134Y-28208806D02*
G01*
X32085355Y-28219645D01*
X32096194Y-28235866D01*
X32100000Y-28255000D01*
X32100000Y-28855000D01*
X32096194Y-28874134D01*
X32085355Y-28890355D01*
X32069134Y-28901194D01*
X32050000Y-28905000D01*
X30250000Y-28905000D01*
X30230866Y-28901194D01*
X30214645Y-28890355D01*
X30203806Y-28874134D01*
X30200000Y-28855000D01*
X30200000Y-28255000D01*
X30203806Y-28235866D01*
X30214645Y-28219645D01*
X30230866Y-28208806D01*
X30250000Y-28205000D01*
X32050000Y-28205000D01*
X32069134Y-28208806D01*
G37*
G36*
X43269134Y-28208806D02*
G01*
X43285355Y-28219645D01*
X43296194Y-28235866D01*
X43300000Y-28255000D01*
X43300000Y-28855000D01*
X43296194Y-28874134D01*
X43285355Y-28890355D01*
X43269134Y-28901194D01*
X43250000Y-28905000D01*
X41450000Y-28905000D01*
X41430866Y-28901194D01*
X41414645Y-28890355D01*
X41403806Y-28874134D01*
X41400000Y-28855000D01*
X41400000Y-28255000D01*
X41403806Y-28235866D01*
X41414645Y-28219645D01*
X41430866Y-28208806D01*
X41450000Y-28205000D01*
X43250000Y-28205000D01*
X43269134Y-28208806D01*
G37*
G36*
X52569134Y-28208806D02*
G01*
X52585355Y-28219645D01*
X52596194Y-28235866D01*
X52600000Y-28255000D01*
X52600000Y-28855000D01*
X52596194Y-28874134D01*
X52585355Y-28890355D01*
X52569134Y-28901194D01*
X52550000Y-28905000D01*
X50750000Y-28905000D01*
X50730866Y-28901194D01*
X50714645Y-28890355D01*
X50703806Y-28874134D01*
X50700000Y-28855000D01*
X50700000Y-28255000D01*
X50703806Y-28235866D01*
X50714645Y-28219645D01*
X50730866Y-28208806D01*
X50750000Y-28205000D01*
X52550000Y-28205000D01*
X52569134Y-28208806D01*
G37*
G36*
X5019134Y-24633806D02*
G01*
X5035355Y-24644645D01*
X5046194Y-24660866D01*
X5050000Y-24680000D01*
X5050000Y-25480000D01*
X5046194Y-25499134D01*
X5035355Y-25515355D01*
X5019134Y-25526194D01*
X5000000Y-25530000D01*
X3000000Y-25530000D01*
X2980866Y-25526194D01*
X2964645Y-25515355D01*
X2953806Y-25499134D01*
X2950000Y-25480000D01*
X2950000Y-24680000D01*
X2953806Y-24660866D01*
X2964645Y-24644645D01*
X2980866Y-24633806D01*
X3000000Y-24630000D01*
X5000000Y-24630000D01*
X5019134Y-24633806D01*
G37*
G36*
X5019134Y-22093806D02*
G01*
X5035355Y-22104645D01*
X5046194Y-22120866D01*
X5050000Y-22140000D01*
X5050000Y-22940000D01*
X5046194Y-22959134D01*
X5035355Y-22975355D01*
X5019134Y-22986194D01*
X5000000Y-22990000D01*
X3874713Y-22990000D01*
X3845666Y-23019047D01*
X3845666Y-23088215D01*
X3811246Y-23261256D01*
X3788653Y-23315799D01*
X3818187Y-23360000D01*
X5000000Y-23360000D01*
X5019134Y-23363806D01*
X5035355Y-23374645D01*
X5046194Y-23390866D01*
X5050000Y-23410000D01*
X5050000Y-24210000D01*
X5046194Y-24229134D01*
X5035355Y-24245355D01*
X5019134Y-24256194D01*
X5000000Y-24260000D01*
X3000000Y-24260000D01*
X2980866Y-24256194D01*
X2964645Y-24245355D01*
X2953806Y-24229134D01*
X2950000Y-24210000D01*
X2950000Y-23924713D01*
X2920953Y-23895666D01*
X2861785Y-23895666D01*
X2688744Y-23861246D01*
X2525743Y-23793729D01*
X2379046Y-23695709D01*
X2254291Y-23570954D01*
X2156271Y-23424257D01*
X2088754Y-23261256D01*
X2054334Y-23088215D01*
X2054334Y-22911785D01*
X2088754Y-22738744D01*
X2156271Y-22575743D01*
X2254291Y-22429046D01*
X2379046Y-22304291D01*
X2525743Y-22206271D01*
X2688744Y-22138754D01*
X2861785Y-22104334D01*
X2959522Y-22104334D01*
X2969756Y-22101229D01*
X2980866Y-22093806D01*
X3000000Y-22090000D01*
X5000000Y-22090000D01*
X5019134Y-22093806D01*
G37*
G36*
X-3800866Y-22103806D02*
G01*
X-3784645Y-22114645D01*
X-3773806Y-22130866D01*
X-3770000Y-22150000D01*
X-3770000Y-23850000D01*
X-3773806Y-23869134D01*
X-3784645Y-23885355D01*
X-3800866Y-23896194D01*
X-3820000Y-23900000D01*
X-5520000Y-23900000D01*
X-5539134Y-23896194D01*
X-5555355Y-23885355D01*
X-5566194Y-23869134D01*
X-5570000Y-23850000D01*
X-5570000Y-22150000D01*
X-5566194Y-22130866D01*
X-5555355Y-22114645D01*
X-5539134Y-22103806D01*
X-5520000Y-22100000D01*
X-3820000Y-22100000D01*
X-3800866Y-22103806D01*
G37*
G36*
X21599134Y-22103806D02*
G01*
X21615355Y-22114645D01*
X21626194Y-22130866D01*
X21630000Y-22150000D01*
X21630000Y-23850000D01*
X21626194Y-23869134D01*
X21615355Y-23885355D01*
X21599134Y-23896194D01*
X21580000Y-23900000D01*
X19880000Y-23900000D01*
X19860866Y-23896194D01*
X19844645Y-23885355D01*
X19833806Y-23869134D01*
X19830000Y-23850000D01*
X19830000Y-22150000D01*
X19833806Y-22130866D01*
X19844645Y-22114645D01*
X19860866Y-22103806D01*
X19880000Y-22100000D01*
X21580000Y-22100000D01*
X21599134Y-22103806D01*
G37*
G36*
X-1868744Y-22138754D02*
G01*
X-1705743Y-22206271D01*
X-1559046Y-22304291D01*
X-1434291Y-22429046D01*
X-1336271Y-22575743D01*
X-1268754Y-22738744D01*
X-1234334Y-22911785D01*
X-1234334Y-23088215D01*
X-1268754Y-23261256D01*
X-1336271Y-23424257D01*
X-1434291Y-23570954D01*
X-1559046Y-23695709D01*
X-1705743Y-23793729D01*
X-1868744Y-23861246D01*
X-2041785Y-23895666D01*
X-2218215Y-23895666D01*
X-2391256Y-23861246D01*
X-2554257Y-23793729D01*
X-2700954Y-23695709D01*
X-2825709Y-23570954D01*
X-2923729Y-23424257D01*
X-2991246Y-23261256D01*
X-3025666Y-23088215D01*
X-3025666Y-22911785D01*
X-2991246Y-22738744D01*
X-2923729Y-22575743D01*
X-2825709Y-22429046D01*
X-2700954Y-22304291D01*
X-2554257Y-22206271D01*
X-2391256Y-22138754D01*
X-2218215Y-22104334D01*
X-2041785Y-22104334D01*
X-1868744Y-22138754D01*
G37*
G36*
X671256Y-22138754D02*
G01*
X834257Y-22206271D01*
X980954Y-22304291D01*
X1105709Y-22429046D01*
X1203729Y-22575743D01*
X1271246Y-22738744D01*
X1305666Y-22911785D01*
X1305666Y-23088215D01*
X1271246Y-23261256D01*
X1203729Y-23424257D01*
X1105709Y-23570954D01*
X980954Y-23695709D01*
X834257Y-23793729D01*
X671256Y-23861246D01*
X498215Y-23895666D01*
X321785Y-23895666D01*
X148744Y-23861246D01*
X-14257Y-23793729D01*
X-160954Y-23695709D01*
X-285709Y-23570954D01*
X-383729Y-23424257D01*
X-451246Y-23261256D01*
X-485666Y-23088215D01*
X-485666Y-22911785D01*
X-451246Y-22738744D01*
X-383729Y-22575743D01*
X-285709Y-22429046D01*
X-160954Y-22304291D01*
X-14257Y-22206271D01*
X148744Y-22138754D01*
X321785Y-22104334D01*
X498215Y-22104334D01*
X671256Y-22138754D01*
G37*
G36*
X10831256Y-22138754D02*
G01*
X10994257Y-22206271D01*
X11140954Y-22304291D01*
X11265709Y-22429046D01*
X11363729Y-22575743D01*
X11431246Y-22738744D01*
X11465666Y-22911785D01*
X11465666Y-23088215D01*
X11431246Y-23261256D01*
X11363729Y-23424257D01*
X11265709Y-23570954D01*
X11140954Y-23695709D01*
X10994257Y-23793729D01*
X10831256Y-23861246D01*
X10658215Y-23895666D01*
X10481785Y-23895666D01*
X10308744Y-23861246D01*
X10145743Y-23793729D01*
X9999046Y-23695709D01*
X9874291Y-23570954D01*
X9776271Y-23424257D01*
X9708754Y-23261256D01*
X9674334Y-23088215D01*
X9674334Y-22911785D01*
X9708754Y-22738744D01*
X9776271Y-22575743D01*
X9874291Y-22429046D01*
X9999046Y-22304291D01*
X10145743Y-22206271D01*
X10308744Y-22138754D01*
X10481785Y-22104334D01*
X10658215Y-22104334D01*
X10831256Y-22138754D01*
G37*
G36*
X13371256Y-22138754D02*
G01*
X13534257Y-22206271D01*
X13680954Y-22304291D01*
X13805709Y-22429046D01*
X13903729Y-22575743D01*
X13971246Y-22738744D01*
X14005666Y-22911785D01*
X14005666Y-23088215D01*
X13971246Y-23261256D01*
X13903729Y-23424257D01*
X13805709Y-23570954D01*
X13680954Y-23695709D01*
X13534257Y-23793729D01*
X13371256Y-23861246D01*
X13198215Y-23895666D01*
X13021785Y-23895666D01*
X12848744Y-23861246D01*
X12685743Y-23793729D01*
X12539046Y-23695709D01*
X12414291Y-23570954D01*
X12316271Y-23424257D01*
X12248754Y-23261256D01*
X12214334Y-23088215D01*
X12214334Y-22911785D01*
X12248754Y-22738744D01*
X12316271Y-22575743D01*
X12414291Y-22429046D01*
X12539046Y-22304291D01*
X12685743Y-22206271D01*
X12848744Y-22138754D01*
X13021785Y-22104334D01*
X13198215Y-22104334D01*
X13371256Y-22138754D01*
G37*
G36*
X18451256Y-22138754D02*
G01*
X18614257Y-22206271D01*
X18760954Y-22304291D01*
X18885709Y-22429046D01*
X18983729Y-22575743D01*
X19051246Y-22738744D01*
X19085666Y-22911785D01*
X19085666Y-23088215D01*
X19051246Y-23261256D01*
X18983729Y-23424257D01*
X18885709Y-23570954D01*
X18760954Y-23695709D01*
X18614257Y-23793729D01*
X18451256Y-23861246D01*
X18278215Y-23895666D01*
X18101785Y-23895666D01*
X17928744Y-23861246D01*
X17765743Y-23793729D01*
X17619046Y-23695709D01*
X17494291Y-23570954D01*
X17396271Y-23424257D01*
X17328754Y-23261256D01*
X17294334Y-23088215D01*
X17294334Y-22911785D01*
X17328754Y-22738744D01*
X17396271Y-22575743D01*
X17494291Y-22429046D01*
X17619046Y-22304291D01*
X17765743Y-22206271D01*
X17928744Y-22138754D01*
X18101785Y-22104334D01*
X18278215Y-22104334D01*
X18451256Y-22138754D01*
G37*
G36*
X33691256Y-22138754D02*
G01*
X33854257Y-22206271D01*
X34000954Y-22304291D01*
X34125709Y-22429046D01*
X34223729Y-22575743D01*
X34291246Y-22738744D01*
X34325666Y-22911785D01*
X34325666Y-23088215D01*
X34291246Y-23261256D01*
X34223729Y-23424257D01*
X34125709Y-23570954D01*
X34000954Y-23695709D01*
X33854257Y-23793729D01*
X33691256Y-23861246D01*
X33518215Y-23895666D01*
X33341785Y-23895666D01*
X33168744Y-23861246D01*
X33005743Y-23793729D01*
X32859046Y-23695709D01*
X32734291Y-23570954D01*
X32636271Y-23424257D01*
X32568754Y-23261256D01*
X32534334Y-23088215D01*
X32534334Y-22911785D01*
X32568754Y-22738744D01*
X32636271Y-22575743D01*
X32734291Y-22429046D01*
X32859046Y-22304291D01*
X33005743Y-22206271D01*
X33168744Y-22138754D01*
X33341785Y-22104334D01*
X33518215Y-22104334D01*
X33691256Y-22138754D01*
G37*
G36*
X36231256Y-22138754D02*
G01*
X36394257Y-22206271D01*
X36540954Y-22304291D01*
X36665709Y-22429046D01*
X36763729Y-22575743D01*
X36831246Y-22738744D01*
X36865666Y-22911785D01*
X36865666Y-23088215D01*
X36831246Y-23261256D01*
X36763729Y-23424257D01*
X36665709Y-23570954D01*
X36540954Y-23695709D01*
X36394257Y-23793729D01*
X36231256Y-23861246D01*
X36058215Y-23895666D01*
X35881785Y-23895666D01*
X35708744Y-23861246D01*
X35545743Y-23793729D01*
X35399046Y-23695709D01*
X35274291Y-23570954D01*
X35176271Y-23424257D01*
X35108754Y-23261256D01*
X35074334Y-23088215D01*
X35074334Y-22911785D01*
X35108754Y-22738744D01*
X35176271Y-22575743D01*
X35274291Y-22429046D01*
X35399046Y-22304291D01*
X35545743Y-22206271D01*
X35708744Y-22138754D01*
X35881785Y-22104334D01*
X36058215Y-22104334D01*
X36231256Y-22138754D01*
G37*
G36*
X38771256Y-22138754D02*
G01*
X38934257Y-22206271D01*
X39080954Y-22304291D01*
X39205709Y-22429046D01*
X39303729Y-22575743D01*
X39371246Y-22738744D01*
X39405666Y-22911785D01*
X39405666Y-23088215D01*
X39371246Y-23261256D01*
X39303729Y-23424257D01*
X39205709Y-23570954D01*
X39080954Y-23695709D01*
X38934257Y-23793729D01*
X38771256Y-23861246D01*
X38598215Y-23895666D01*
X38421785Y-23895666D01*
X38248744Y-23861246D01*
X38085743Y-23793729D01*
X37939046Y-23695709D01*
X37814291Y-23570954D01*
X37716271Y-23424257D01*
X37648754Y-23261256D01*
X37614334Y-23088215D01*
X37614334Y-22911785D01*
X37648754Y-22738744D01*
X37716271Y-22575743D01*
X37814291Y-22429046D01*
X37939046Y-22304291D01*
X38085743Y-22206271D01*
X38248744Y-22138754D01*
X38421785Y-22104334D01*
X38598215Y-22104334D01*
X38771256Y-22138754D01*
G37*
G36*
X41311256Y-22138754D02*
G01*
X41474257Y-22206271D01*
X41620954Y-22304291D01*
X41745709Y-22429046D01*
X41843729Y-22575743D01*
X41911246Y-22738744D01*
X41945666Y-22911785D01*
X41945666Y-23088215D01*
X41911246Y-23261256D01*
X41843729Y-23424257D01*
X41745709Y-23570954D01*
X41620954Y-23695709D01*
X41474257Y-23793729D01*
X41311256Y-23861246D01*
X41138215Y-23895666D01*
X40961785Y-23895666D01*
X40788744Y-23861246D01*
X40625743Y-23793729D01*
X40479046Y-23695709D01*
X40354291Y-23570954D01*
X40256271Y-23424257D01*
X40188754Y-23261256D01*
X40154334Y-23088215D01*
X40154334Y-22911785D01*
X40188754Y-22738744D01*
X40256271Y-22575743D01*
X40354291Y-22429046D01*
X40479046Y-22304291D01*
X40625743Y-22206271D01*
X40788744Y-22138754D01*
X40961785Y-22104334D01*
X41138215Y-22104334D01*
X41311256Y-22138754D01*
G37*
G36*
X43851256Y-22138754D02*
G01*
X44014257Y-22206271D01*
X44160954Y-22304291D01*
X44285709Y-22429046D01*
X44383729Y-22575743D01*
X44451246Y-22738744D01*
X44485666Y-22911785D01*
X44485666Y-23088215D01*
X44451246Y-23261256D01*
X44383729Y-23424257D01*
X44285709Y-23570954D01*
X44160954Y-23695709D01*
X44014257Y-23793729D01*
X43851256Y-23861246D01*
X43678215Y-23895666D01*
X43501785Y-23895666D01*
X43328744Y-23861246D01*
X43165743Y-23793729D01*
X43019046Y-23695709D01*
X42894291Y-23570954D01*
X42796271Y-23424257D01*
X42728754Y-23261256D01*
X42694334Y-23088215D01*
X42694334Y-22911785D01*
X42728754Y-22738744D01*
X42796271Y-22575743D01*
X42894291Y-22429046D01*
X43019046Y-22304291D01*
X43165743Y-22206271D01*
X43328744Y-22138754D01*
X43501785Y-22104334D01*
X43678215Y-22104334D01*
X43851256Y-22138754D01*
G37*
G36*
X46391256Y-22138754D02*
G01*
X46554257Y-22206271D01*
X46700954Y-22304291D01*
X46825709Y-22429046D01*
X46923729Y-22575743D01*
X46991246Y-22738744D01*
X47025666Y-22911785D01*
X47025666Y-23088215D01*
X46991246Y-23261256D01*
X46923729Y-23424257D01*
X46825709Y-23570954D01*
X46700954Y-23695709D01*
X46554257Y-23793729D01*
X46391256Y-23861246D01*
X46218215Y-23895666D01*
X46041785Y-23895666D01*
X45868744Y-23861246D01*
X45705743Y-23793729D01*
X45559046Y-23695709D01*
X45434291Y-23570954D01*
X45336271Y-23424257D01*
X45268754Y-23261256D01*
X45234334Y-23088215D01*
X45234334Y-22911785D01*
X45268754Y-22738744D01*
X45336271Y-22575743D01*
X45434291Y-22429046D01*
X45559046Y-22304291D01*
X45705743Y-22206271D01*
X45868744Y-22138754D01*
X46041785Y-22104334D01*
X46218215Y-22104334D01*
X46391256Y-22138754D01*
G37*
G36*
X48931256Y-22138754D02*
G01*
X49094257Y-22206271D01*
X49240954Y-22304291D01*
X49365709Y-22429046D01*
X49463729Y-22575743D01*
X49531246Y-22738744D01*
X49565666Y-22911785D01*
X49565666Y-23088215D01*
X49531246Y-23261256D01*
X49463729Y-23424257D01*
X49365709Y-23570954D01*
X49240954Y-23695709D01*
X49094257Y-23793729D01*
X48931256Y-23861246D01*
X48758215Y-23895666D01*
X48581785Y-23895666D01*
X48408744Y-23861246D01*
X48245743Y-23793729D01*
X48099046Y-23695709D01*
X47974291Y-23570954D01*
X47876271Y-23424257D01*
X47808754Y-23261256D01*
X47774334Y-23088215D01*
X47774334Y-22911785D01*
X47808754Y-22738744D01*
X47876271Y-22575743D01*
X47974291Y-22429046D01*
X48099046Y-22304291D01*
X48245743Y-22206271D01*
X48408744Y-22138754D01*
X48581785Y-22104334D01*
X48758215Y-22104334D01*
X48931256Y-22138754D01*
G37*
G36*
X66711256Y-22138754D02*
G01*
X66874257Y-22206271D01*
X67020954Y-22304291D01*
X67145709Y-22429046D01*
X67243729Y-22575743D01*
X67311246Y-22738744D01*
X67345666Y-22911785D01*
X67345666Y-23088215D01*
X67311246Y-23261256D01*
X67243729Y-23424257D01*
X67145709Y-23570954D01*
X67020954Y-23695709D01*
X66874257Y-23793729D01*
X66711256Y-23861246D01*
X66538215Y-23895666D01*
X66361785Y-23895666D01*
X66188744Y-23861246D01*
X66025743Y-23793729D01*
X65879046Y-23695709D01*
X65754291Y-23570954D01*
X65656271Y-23424257D01*
X65588754Y-23261256D01*
X65554334Y-23088215D01*
X65554334Y-22911785D01*
X65588754Y-22738744D01*
X65656271Y-22575743D01*
X65754291Y-22429046D01*
X65879046Y-22304291D01*
X66025743Y-22206271D01*
X66188744Y-22138754D01*
X66361785Y-22104334D01*
X66538215Y-22104334D01*
X66711256Y-22138754D01*
G37*
G36*
X69251256Y-22138754D02*
G01*
X69414257Y-22206271D01*
X69560954Y-22304291D01*
X69685709Y-22429046D01*
X69783729Y-22575743D01*
X69851246Y-22738744D01*
X69885666Y-22911785D01*
X69885666Y-23088215D01*
X69851246Y-23261256D01*
X69783729Y-23424257D01*
X69685709Y-23570954D01*
X69560954Y-23695709D01*
X69414257Y-23793729D01*
X69251256Y-23861246D01*
X69078215Y-23895666D01*
X68901785Y-23895666D01*
X68728744Y-23861246D01*
X68565743Y-23793729D01*
X68419046Y-23695709D01*
X68294291Y-23570954D01*
X68196271Y-23424257D01*
X68128754Y-23261256D01*
X68094334Y-23088215D01*
X68094334Y-22911785D01*
X68128754Y-22738744D01*
X68196271Y-22575743D01*
X68294291Y-22429046D01*
X68419046Y-22304291D01*
X68565743Y-22206271D01*
X68728744Y-22138754D01*
X68901785Y-22104334D01*
X69078215Y-22104334D01*
X69251256Y-22138754D01*
G37*
G36*
X74331256Y-22138754D02*
G01*
X74494257Y-22206271D01*
X74640954Y-22304291D01*
X74765709Y-22429046D01*
X74863729Y-22575743D01*
X74931246Y-22738744D01*
X74965666Y-22911785D01*
X74965666Y-23088215D01*
X74931246Y-23261256D01*
X74863729Y-23424257D01*
X74765709Y-23570954D01*
X74640954Y-23695709D01*
X74494257Y-23793729D01*
X74331256Y-23861246D01*
X74158215Y-23895666D01*
X73981785Y-23895666D01*
X73808744Y-23861246D01*
X73645743Y-23793729D01*
X73499046Y-23695709D01*
X73374291Y-23570954D01*
X73276271Y-23424257D01*
X73208754Y-23261256D01*
X73174334Y-23088215D01*
X73174334Y-22911785D01*
X73208754Y-22738744D01*
X73276271Y-22575743D01*
X73374291Y-22429046D01*
X73499046Y-22304291D01*
X73645743Y-22206271D01*
X73808744Y-22138754D01*
X73981785Y-22104334D01*
X74158215Y-22104334D01*
X74331256Y-22138754D01*
G37*
G36*
X5019134Y-20823806D02*
G01*
X5035355Y-20834645D01*
X5046194Y-20850866D01*
X5050000Y-20870000D01*
X5050000Y-21670000D01*
X5046194Y-21689134D01*
X5035355Y-21705355D01*
X5019134Y-21716194D01*
X5000000Y-21720000D01*
X3000000Y-21720000D01*
X2980866Y-21716194D01*
X2964645Y-21705355D01*
X2953806Y-21689134D01*
X2950000Y-21670000D01*
X2950000Y-20870000D01*
X2953806Y-20850866D01*
X2964645Y-20834645D01*
X2980866Y-20823806D01*
X3000000Y-20820000D01*
X5000000Y-20820000D01*
X5019134Y-20823806D01*
G37*
G36*
X71189134Y-18453806D02*
G01*
X71205355Y-18464645D01*
X71216194Y-18480866D01*
X71220000Y-18500000D01*
X71220000Y-20500000D01*
X71216194Y-20519134D01*
X71205355Y-20535355D01*
X71189134Y-20546194D01*
X71170000Y-20550000D01*
X70270000Y-20550000D01*
X70250866Y-20546194D01*
X70234645Y-20535355D01*
X70223806Y-20519134D01*
X70220000Y-20500000D01*
X70220000Y-18500000D01*
X70223806Y-18480866D01*
X70234645Y-18464645D01*
X70250866Y-18453806D01*
X70270000Y-18450000D01*
X71170000Y-18450000D01*
X71189134Y-18453806D01*
G37*
G36*
X72329134Y-18453806D02*
G01*
X72345355Y-18464645D01*
X72356194Y-18480866D01*
X72360000Y-18500000D01*
X72360000Y-20500000D01*
X72356194Y-20519134D01*
X72345355Y-20535355D01*
X72329134Y-20546194D01*
X72310000Y-20550000D01*
X71410000Y-20550000D01*
X71390866Y-20546194D01*
X71374645Y-20535355D01*
X71363806Y-20519134D01*
X71360000Y-20500000D01*
X71360000Y-18500000D01*
X71363806Y-18480866D01*
X71374645Y-18464645D01*
X71390866Y-18453806D01*
X71410000Y-18450000D01*
X72310000Y-18450000D01*
X72329134Y-18453806D01*
G37*
G36*
X74609134Y-18453806D02*
G01*
X74625355Y-18464645D01*
X74636194Y-18480866D01*
X74640000Y-18500000D01*
X74640000Y-20500000D01*
X74636194Y-20519134D01*
X74625355Y-20535355D01*
X74609134Y-20546194D01*
X74590000Y-20550000D01*
X73690000Y-20550000D01*
X73670866Y-20546194D01*
X73654645Y-20535355D01*
X73643806Y-20519134D01*
X73640000Y-20500000D01*
X73640000Y-18500000D01*
X73643806Y-18480866D01*
X73654645Y-18464645D01*
X73670866Y-18453806D01*
X73690000Y-18450000D01*
X74590000Y-18450000D01*
X74609134Y-18453806D01*
G37*
G36*
X75749134Y-18453806D02*
G01*
X75765355Y-18464645D01*
X75776194Y-18480866D01*
X75780000Y-18500000D01*
X75780000Y-20500000D01*
X75776194Y-20519134D01*
X75765355Y-20535355D01*
X75749134Y-20546194D01*
X75730000Y-20550000D01*
X74830000Y-20550000D01*
X74810866Y-20546194D01*
X74794645Y-20535355D01*
X74783806Y-20519134D01*
X74780000Y-20500000D01*
X74780000Y-18500000D01*
X74783806Y-18480866D01*
X74794645Y-18464645D01*
X74810866Y-18453806D01*
X74830000Y-18450000D01*
X75730000Y-18450000D01*
X75749134Y-18453806D01*
G37*
G36*
X5019134Y-19553806D02*
G01*
X5035355Y-19564645D01*
X5046194Y-19580866D01*
X5050000Y-19600000D01*
X5050000Y-20400000D01*
X5046194Y-20419134D01*
X5035355Y-20435355D01*
X5019134Y-20446194D01*
X5000000Y-20450000D01*
X3000000Y-20450000D01*
X2980866Y-20446194D01*
X2964645Y-20435355D01*
X2953806Y-20419134D01*
X2950000Y-20400000D01*
X2950000Y-19600000D01*
X2953806Y-19580866D01*
X2964645Y-19564645D01*
X2980866Y-19553806D01*
X3000000Y-19550000D01*
X5000000Y-19550000D01*
X5019134Y-19553806D01*
G37*
G36*
X5019134Y-18283806D02*
G01*
X5035355Y-18294645D01*
X5046194Y-18310866D01*
X5050000Y-18330000D01*
X5050000Y-19130000D01*
X5046194Y-19149134D01*
X5035355Y-19165355D01*
X5019134Y-19176194D01*
X5000000Y-19180000D01*
X3000000Y-19180000D01*
X2980866Y-19176194D01*
X2964645Y-19165355D01*
X2953806Y-19149134D01*
X2950000Y-19130000D01*
X2950000Y-18330000D01*
X2953806Y-18310866D01*
X2964645Y-18294645D01*
X2980866Y-18283806D01*
X3000000Y-18280000D01*
X5000000Y-18280000D01*
X5019134Y-18283806D01*
G37*
G36*
X5019134Y-17013806D02*
G01*
X5035355Y-17024645D01*
X5046194Y-17040866D01*
X5050000Y-17060000D01*
X5050000Y-17860000D01*
X5046194Y-17879134D01*
X5035355Y-17895355D01*
X5019134Y-17906194D01*
X5000000Y-17910000D01*
X3000000Y-17910000D01*
X2980866Y-17906194D01*
X2964645Y-17895355D01*
X2953806Y-17879134D01*
X2950000Y-17860000D01*
X2950000Y-17060000D01*
X2953806Y-17040866D01*
X2964645Y-17024645D01*
X2980866Y-17013806D01*
X3000000Y-17010000D01*
X5000000Y-17010000D01*
X5019134Y-17013806D01*
G37*
G36*
X5019134Y-15743806D02*
G01*
X5035355Y-15754645D01*
X5046194Y-15770866D01*
X5050000Y-15790000D01*
X5050000Y-16590000D01*
X5046194Y-16609134D01*
X5035355Y-16625355D01*
X5019134Y-16636194D01*
X5000000Y-16640000D01*
X3000000Y-16640000D01*
X2980866Y-16636194D01*
X2964645Y-16625355D01*
X2953806Y-16609134D01*
X2950000Y-16590000D01*
X2950000Y-15790000D01*
X2953806Y-15770866D01*
X2964645Y-15754645D01*
X2980866Y-15743806D01*
X3000000Y-15740000D01*
X5000000Y-15740000D01*
X5019134Y-15743806D01*
G37*
G36*
X76269134Y-10703806D02*
G01*
X76285355Y-10714645D01*
X76296194Y-10730866D01*
X76300000Y-10750000D01*
X76300000Y-16250000D01*
X76296194Y-16269134D01*
X76285355Y-16285355D01*
X76269134Y-16296194D01*
X76250000Y-16300000D01*
X69750000Y-16300000D01*
X69730866Y-16296194D01*
X69714645Y-16285355D01*
X69703806Y-16269134D01*
X69700000Y-16250000D01*
X69700000Y-10750000D01*
X69703806Y-10730866D01*
X69714645Y-10714645D01*
X69730866Y-10703806D01*
X69750000Y-10700000D01*
X76250000Y-10700000D01*
X76269134Y-10703806D01*
G37*
G36*
X32059134Y-6603806D02*
G01*
X32075355Y-6614645D01*
X32086194Y-6630866D01*
X32090000Y-6650000D01*
X32090000Y-8350000D01*
X32086194Y-8369134D01*
X32075355Y-8385355D01*
X32059134Y-8396194D01*
X32040000Y-8400000D01*
X30340000Y-8400000D01*
X30320866Y-8396194D01*
X30304645Y-8385355D01*
X30293806Y-8369134D01*
X30290000Y-8350000D01*
X30290000Y-6650000D01*
X30293806Y-6630866D01*
X30304645Y-6614645D01*
X30320866Y-6603806D01*
X30340000Y-6600000D01*
X32040000Y-6600000D01*
X32059134Y-6603806D01*
G37*
G36*
X33991256Y-6638754D02*
G01*
X34154257Y-6706271D01*
X34300954Y-6804291D01*
X34425709Y-6929046D01*
X34523729Y-7075743D01*
X34591246Y-7238744D01*
X34625666Y-7411785D01*
X34625666Y-7588215D01*
X34591246Y-7761256D01*
X34523729Y-7924257D01*
X34425709Y-8070954D01*
X34300954Y-8195709D01*
X34154257Y-8293729D01*
X33991256Y-8361246D01*
X33818215Y-8395666D01*
X33641785Y-8395666D01*
X33468744Y-8361246D01*
X33305743Y-8293729D01*
X33159046Y-8195709D01*
X33034291Y-8070954D01*
X32936271Y-7924257D01*
X32868754Y-7761256D01*
X32834334Y-7588215D01*
X32834334Y-7411785D01*
X32868754Y-7238744D01*
X32936271Y-7075743D01*
X33034291Y-6929046D01*
X33159046Y-6804291D01*
X33305743Y-6706271D01*
X33468744Y-6638754D01*
X33641785Y-6604334D01*
X33818215Y-6604334D01*
X33991256Y-6638754D01*
G37*
G36*
X36531256Y-6638754D02*
G01*
X36694257Y-6706271D01*
X36840954Y-6804291D01*
X36965709Y-6929046D01*
X37063729Y-7075743D01*
X37131246Y-7238744D01*
X37165666Y-7411785D01*
X37165666Y-7588215D01*
X37131246Y-7761256D01*
X37063729Y-7924257D01*
X36965709Y-8070954D01*
X36840954Y-8195709D01*
X36694257Y-8293729D01*
X36531256Y-8361246D01*
X36358215Y-8395666D01*
X36181785Y-8395666D01*
X36008744Y-8361246D01*
X35845743Y-8293729D01*
X35699046Y-8195709D01*
X35574291Y-8070954D01*
X35476271Y-7924257D01*
X35408754Y-7761256D01*
X35374334Y-7588215D01*
X35374334Y-7411785D01*
X35408754Y-7238744D01*
X35476271Y-7075743D01*
X35574291Y-6929046D01*
X35699046Y-6804291D01*
X35845743Y-6706271D01*
X36008744Y-6638754D01*
X36181785Y-6604334D01*
X36358215Y-6604334D01*
X36531256Y-6638754D01*
G37*
G36*
X39071256Y-6638754D02*
G01*
X39234257Y-6706271D01*
X39380954Y-6804291D01*
X39505709Y-6929046D01*
X39603729Y-7075743D01*
X39671246Y-7238744D01*
X39705666Y-7411785D01*
X39705666Y-7588215D01*
X39671246Y-7761256D01*
X39603729Y-7924257D01*
X39505709Y-8070954D01*
X39380954Y-8195709D01*
X39234257Y-8293729D01*
X39071256Y-8361246D01*
X38898215Y-8395666D01*
X38721785Y-8395666D01*
X38548744Y-8361246D01*
X38385743Y-8293729D01*
X38239046Y-8195709D01*
X38114291Y-8070954D01*
X38016271Y-7924257D01*
X37948754Y-7761256D01*
X37914334Y-7588215D01*
X37914334Y-7411785D01*
X37948754Y-7238744D01*
X38016271Y-7075743D01*
X38114291Y-6929046D01*
X38239046Y-6804291D01*
X38385743Y-6706271D01*
X38548744Y-6638754D01*
X38721785Y-6604334D01*
X38898215Y-6604334D01*
X39071256Y-6638754D01*
G37*
G36*
X3826824Y-2138682D02*
G01*
X4035757Y-2206569D01*
X4231498Y-2306304D01*
X4409227Y-2435432D01*
X4564568Y-2590773D01*
X4693696Y-2768502D01*
X4793431Y-2964243D01*
X4861318Y-3173176D01*
X4895684Y-3390157D01*
X4895684Y-3609843D01*
X4861318Y-3826824D01*
X4793431Y-4035757D01*
X4693696Y-4231498D01*
X4564568Y-4409227D01*
X4409227Y-4564568D01*
X4231498Y-4693696D01*
X4035757Y-4793431D01*
X3826824Y-4861318D01*
X3609843Y-4895684D01*
X3390157Y-4895684D01*
X3173176Y-4861318D01*
X2964243Y-4793431D01*
X2768502Y-4693696D01*
X2590773Y-4564568D01*
X2435432Y-4409227D01*
X2306304Y-4231498D01*
X2206569Y-4035757D01*
X2138682Y-3826824D01*
X2104316Y-3609843D01*
X2104316Y-3390157D01*
X2138682Y-3173176D01*
X2206569Y-2964243D01*
X2306304Y-2768502D01*
X2435432Y-2590773D01*
X2590773Y-2435432D01*
X2768502Y-2306304D01*
X2964243Y-2206569D01*
X3173176Y-2138682D01*
X3390157Y-2104316D01*
X3609843Y-2104316D01*
X3826824Y-2138682D01*
G37*
G36*
X81826824Y-2138682D02*
G01*
X82035757Y-2206569D01*
X82231498Y-2306304D01*
X82409227Y-2435432D01*
X82564568Y-2590773D01*
X82693696Y-2768502D01*
X82793431Y-2964243D01*
X82861318Y-3173176D01*
X82895684Y-3390157D01*
X82895684Y-3609843D01*
X82861318Y-3826824D01*
X82793431Y-4035757D01*
X82693696Y-4231498D01*
X82564568Y-4409227D01*
X82409227Y-4564568D01*
X82231498Y-4693696D01*
X82035757Y-4793431D01*
X81826824Y-4861318D01*
X81609843Y-4895684D01*
X81390157Y-4895684D01*
X81173176Y-4861318D01*
X80964243Y-4793431D01*
X80768502Y-4693696D01*
X80590773Y-4564568D01*
X80435432Y-4409227D01*
X80306304Y-4231498D01*
X80206569Y-4035757D01*
X80138682Y-3826824D01*
X80104316Y-3609843D01*
X80104316Y-3390157D01*
X80138682Y-3173176D01*
X80206569Y-2964243D01*
X80306304Y-2768502D01*
X80435432Y-2590773D01*
X80590773Y-2435432D01*
X80768502Y-2306304D01*
X80964243Y-2206569D01*
X81173176Y-2138682D01*
X81390157Y-2104316D01*
X81609843Y-2104316D01*
X81826824Y-2138682D01*
G37*
M02*
