%TF.GenerationSoftware,KiCad,Pcbnew,10.0.5*%
%TF.CreationDate,2026-08-18T20:50:20-07:00*%
%TF.ProjectId,opendtu_carrier_pcb,6f70656e-6474-4755-9f63-617272696572,rev?*%
%TF.SameCoordinates,Original*%
%TF.FileFunction,Copper,L1,Top*%
%TF.FilePolarity,Positive*%
%FSLAX46Y46*%
G04 Gerber Fmt 4.6, Leading zero omitted, Abs format (unit mm)*
G04 Created by KiCad (PCBNEW 10.0.5) date 2026-08-18 20:50:20*
%MOMM*%
%LPD*%
G01*
G04 APERTURE LIST*
%TA.AperFunction,ComponentPad*%
%ADD10R,2.200000X2.200000*%
%TD*%
%TA.AperFunction,ComponentPad*%
%ADD11C,2.200000*%
%TD*%
%TA.AperFunction,ComponentPad*%
%ADD12R,1.700000X1.700000*%
%TD*%
%TA.AperFunction,ComponentPad*%
%ADD13C,1.700000*%
%TD*%
%TA.AperFunction,SMDPad,CuDef*%
%ADD14R,0.900000X2.000000*%
%TD*%
%TA.AperFunction,SMDPad,CuDef*%
%ADD15R,6.500000X5.500000*%
%TD*%
%TA.AperFunction,ComponentPad*%
%ADD16R,1.800000X1.800000*%
%TD*%
%TA.AperFunction,ComponentPad*%
%ADD17C,1.800000*%
%TD*%
%TA.AperFunction,SMDPad,CuDef*%
%ADD18R,1.800000X0.600000*%
%TD*%
%TA.AperFunction,SMDPad,CuDef*%
%ADD19R,1.400000X0.600000*%
%TD*%
%TA.AperFunction,SMDPad,CuDef*%
%ADD20R,2.000000X0.800000*%
%TD*%
G04 APERTURE END LIST*
D10*
%TO.P,J1,1*%
%TO.N,VIN*%
X6460000Y-51500000D03*
D11*
%TO.P,J1,2*%
%TO.N,GND*%
X11540000Y-51500000D03*
%TD*%
D10*
%TO.P,J2,1*%
%TO.N,RS485_A*%
X21420000Y-51500000D03*
D11*
%TO.P,J2,2*%
%TO.N,RS485_B*%
X26500000Y-51500000D03*
%TO.P,J2,3*%
%TO.N,GND_ISO*%
X31580000Y-51500000D03*
%TD*%
D10*
%TO.P,J3,1*%
%TO.N,CAN_H*%
X41920000Y-51500000D03*
D11*
%TO.P,J3,2*%
%TO.N,CAN_L*%
X47000000Y-51500000D03*
%TO.P,J3,3*%
%TO.N,GND_ISO*%
X52080000Y-51500000D03*
%TD*%
D10*
%TO.P,J4,1*%
%TO.N,+5V_VE*%
X62380000Y-51500000D03*
D11*
%TO.P,J4,2*%
%TO.N,VE_RX_ISO*%
X67460000Y-51500000D03*
%TO.P,J4,3*%
%TO.N,VE_TX_ISO*%
X72540000Y-51500000D03*
%TO.P,J4,4*%
%TO.N,GND_VE*%
X77620000Y-51500000D03*
%TD*%
D12*
%TO.P,J5,1*%
%TO.N,+3V3*%
X-4670000Y-23000000D03*
D13*
%TO.P,J5,2*%
%TO.N,N/C*%
X-2130000Y-23000000D03*
%TO.P,J5,3*%
%TO.N,I2C_SCL*%
X410000Y-23000000D03*
%TO.P,J5,4*%
%TO.N,I2C_SDA*%
X2950000Y-23000000D03*
%TO.P,J5,7*%
%TO.N,RS485_RX*%
X10570000Y-23000000D03*
%TO.P,J5,8*%
%TO.N,RS485_TX*%
X13110000Y-23000000D03*
%TO.P,J5,10*%
%TO.N,VE_RX_ESP*%
X18190000Y-23000000D03*
%TO.P,J5,11*%
%TO.N,VE_TX_ESP*%
X20730000Y-23000000D03*
%TO.P,J5,16*%
%TO.N,CMT_SCLK*%
X33430000Y-23000000D03*
%TO.P,J5,17*%
%TO.N,CMT_SDIO*%
X35970000Y-23000000D03*
%TO.P,J5,18*%
%TO.N,CMT_CSB*%
X38510000Y-23000000D03*
%TO.P,J5,19*%
%TO.N,CMT_FCSB*%
X41050000Y-23000000D03*
%TO.P,J5,20*%
%TO.N,CMT_GPIO2*%
X43590000Y-23000000D03*
%TO.P,J5,21*%
%TO.N,CMT_GPIO3*%
X46130000Y-23000000D03*
%TO.P,J5,22*%
%TO.N,+5V*%
X48670000Y-23000000D03*
%TD*%
D12*
%TO.P,J6,1*%
%TO.N,GND*%
X20730000Y-23000000D03*
D13*
%TO.P,J6,19*%
%TO.N,CAN_TX*%
X66450000Y-23000000D03*
%TO.P,J6,20*%
%TO.N,CAN_RX*%
X68990000Y-23000000D03*
%TO.P,J6,22*%
%TO.N,GND*%
X74070000Y-23000000D03*
%TD*%
D12*
%TO.P,J7,1*%
%TO.N,GND*%
X31190000Y-7500000D03*
D13*
%TO.P,J7,2*%
%TO.N,+3V3*%
X33730000Y-7500000D03*
%TO.P,J7,3*%
%TO.N,I2C_SCL*%
X36270000Y-7500000D03*
%TO.P,J7,4*%
%TO.N,I2C_SDA*%
X38810000Y-7500000D03*
%TD*%
D14*
%TO.P,U1,1*%
%TO.N,VIN*%
X70720000Y-19500000D03*
%TO.P,U1,2*%
%TO.N,N/C*%
X71860000Y-19500000D03*
D15*
%TO.P,U1,3*%
%TO.N,GND*%
X73000000Y-13500000D03*
D14*
%TO.P,U1,4*%
%TO.N,N/C*%
X74140000Y-19500000D03*
%TO.P,U1,5*%
%TO.N,GND*%
X75280000Y-19500000D03*
%TD*%
D16*
%TO.P,U2,1*%
%TO.N,GND*%
X31190000Y-33000000D03*
D17*
%TO.P,U2,2*%
%TO.N,+5V*%
X33730000Y-33000000D03*
%TO.P,U2,3*%
%TO.N,GND_ISO*%
X36270000Y-33000000D03*
%TO.P,U2,4*%
%TO.N,+5V_ISO*%
X38810000Y-33000000D03*
%TD*%
D18*
%TO.P,U3,1*%
%TO.N,+5V*%
X21850000Y-28555000D03*
%TO.P,U3,2*%
%TO.N,GND*%
X21850000Y-29825000D03*
%TO.P,U3,3*%
%TO.N,RS485_RX*%
X21850000Y-31095000D03*
%TO.P,U3,4*%
%TO.N,N/C*%
X21850000Y-32365000D03*
%TO.P,U3,5*%
X21850000Y-33635000D03*
%TO.P,U3,6*%
%TO.N,RS485_TX*%
X21850000Y-34905000D03*
%TO.P,U3,8*%
%TO.N,GND*%
X21850000Y-37445000D03*
%TO.P,U3,9*%
%TO.N,GND_ISO*%
X31150000Y-37445000D03*
%TO.P,U3,12*%
%TO.N,RS485_B*%
X31150000Y-33635000D03*
%TO.P,U3,13*%
%TO.N,RS485_A*%
X31150000Y-32365000D03*
%TO.P,U3,16*%
%TO.N,+5V_ISO*%
X31150000Y-28555000D03*
%TD*%
%TO.P,U4,1*%
%TO.N,+5V*%
X42350000Y-28555000D03*
%TO.P,U4,2*%
%TO.N,GND*%
X42350000Y-29825000D03*
%TO.P,U4,3*%
%TO.N,CAN_TX*%
X42350000Y-31095000D03*
%TO.P,U4,4*%
%TO.N,CAN_RX*%
X42350000Y-32365000D03*
%TO.P,U4,8*%
%TO.N,GND*%
X42350000Y-37445000D03*
%TO.P,U4,9*%
%TO.N,GND_ISO*%
X51650000Y-37445000D03*
%TO.P,U4,12*%
%TO.N,CAN_L*%
X51650000Y-33635000D03*
%TO.P,U4,13*%
%TO.N,CAN_H*%
X51650000Y-32365000D03*
%TO.P,U4,16*%
%TO.N,+5V_ISO*%
X51650000Y-28555000D03*
%TD*%
D19*
%TO.P,U5,1*%
%TO.N,+5V*%
X67400000Y-31095000D03*
%TO.P,U5,2*%
%TO.N,VE_TX_ESP*%
X67400000Y-32365000D03*
%TO.P,U5,3*%
%TO.N,VE_RX_ESP*%
X67400000Y-33635000D03*
%TO.P,U5,4*%
%TO.N,GND*%
X67400000Y-34905000D03*
%TO.P,U5,5*%
%TO.N,GND_VE*%
X72600000Y-34905000D03*
%TO.P,U5,6*%
%TO.N,VE_RX_ISO*%
X72600000Y-33635000D03*
%TO.P,U5,7*%
%TO.N,VE_TX_ISO*%
X72600000Y-32365000D03*
%TO.P,U5,8*%
%TO.N,+5V_VE*%
X72600000Y-31095000D03*
%TD*%
D20*
%TO.P,U6,1*%
%TO.N,GND*%
X4000000Y-16190000D03*
%TO.P,U6,2*%
%TO.N,+3V3*%
X4000000Y-17460000D03*
%TO.P,U6,3*%
%TO.N,CMT_SDIO*%
X4000000Y-18730000D03*
%TO.P,U6,4*%
%TO.N,CMT_SCLK*%
X4000000Y-20000000D03*
%TO.P,U6,5*%
%TO.N,CMT_CSB*%
X4000000Y-21270000D03*
%TO.P,U6,6*%
%TO.N,CMT_FCSB*%
X4000000Y-22540000D03*
%TO.P,U6,7*%
%TO.N,CMT_GPIO2*%
X4000000Y-23810000D03*
%TO.P,U6,8*%
%TO.N,CMT_GPIO3*%
X4000000Y-25080000D03*
%TD*%
M02*
