%TF.GenerationSoftware,KiCad,Pcbnew,10.0.5*%
%TF.CreationDate,2026-08-18T20:50:20-07:00*%
%TF.ProjectId,opendtu_carrier_pcb,6f70656e-6474-4755-9f63-617272696572,rev?*%
%TF.SameCoordinates,Original*%
%TF.FileFunction,Paste,Top*%
%TF.FilePolarity,Positive*%
%FSLAX46Y46*%
G04 Gerber Fmt 4.6, Leading zero omitted, Abs format (unit mm)*
G04 Created by KiCad (PCBNEW 10.0.5) date 2026-08-18 20:50:20*
%MOMM*%
%LPD*%
G01*
G04 APERTURE LIST*
%ADD10R,0.900000X2.000000*%
%ADD11R,6.500000X5.500000*%
%ADD12R,1.800000X0.600000*%
%ADD13R,1.400000X0.600000*%
%ADD14R,2.000000X0.800000*%
G04 APERTURE END LIST*
D10*
%TO.C,U1*%
X70720000Y-19500000D03*
X71860000Y-19500000D03*
D11*
X73000000Y-13500000D03*
D10*
X74140000Y-19500000D03*
X75280000Y-19500000D03*
%TD*%
D12*
%TO.C,U3*%
X21850000Y-28555000D03*
X21850000Y-29825000D03*
X21850000Y-31095000D03*
X21850000Y-32365000D03*
X21850000Y-33635000D03*
X21850000Y-34905000D03*
X21850000Y-37445000D03*
X31150000Y-37445000D03*
X31150000Y-33635000D03*
X31150000Y-32365000D03*
X31150000Y-28555000D03*
%TD*%
%TO.C,U4*%
X42350000Y-28555000D03*
X42350000Y-29825000D03*
X42350000Y-31095000D03*
X42350000Y-32365000D03*
X42350000Y-37445000D03*
X51650000Y-37445000D03*
X51650000Y-33635000D03*
X51650000Y-32365000D03*
X51650000Y-28555000D03*
%TD*%
D13*
%TO.C,U5*%
X67400000Y-31095000D03*
X67400000Y-32365000D03*
X67400000Y-33635000D03*
X67400000Y-34905000D03*
X72600000Y-34905000D03*
X72600000Y-33635000D03*
X72600000Y-32365000D03*
X72600000Y-31095000D03*
%TD*%
D14*
%TO.C,U6*%
X4000000Y-16190000D03*
X4000000Y-17460000D03*
X4000000Y-18730000D03*
X4000000Y-20000000D03*
X4000000Y-21270000D03*
X4000000Y-22540000D03*
X4000000Y-23810000D03*
X4000000Y-25080000D03*
%TD*%
M02*
