%TF.GenerationSoftware,KiCad,Pcbnew,10.0.5*%
%TF.CreationDate,2026-08-18T20:50:20-07:00*%
%TF.ProjectId,opendtu_carrier_pcb,6f70656e-6474-4755-9f63-617272696572,rev?*%
%TF.SameCoordinates,Original*%
%TF.FileFunction,Legend,Top*%
%TF.FilePolarity,Positive*%
%FSLAX46Y46*%
G04 Gerber Fmt 4.6, Leading zero omitted, Abs format (unit mm)*
G04 Created by KiCad (PCBNEW 10.0.5) date 2026-08-18 20:50:20*
%MOMM*%
%LPD*%
G01*
G04 APERTURE LIST*
%ADD10C,0.250000*%
%ADD11C,0.180000*%
%ADD12C,0.200000*%
%ADD13C,0.150000*%
G04 APERTURE END LIST*
D10*
X24571429Y-2180928D02*
X24857143Y-2180928D01*
X24857143Y-2180928D02*
X25000000Y-2252357D01*
X25000000Y-2252357D02*
X25142857Y-2395214D01*
X25142857Y-2395214D02*
X25214286Y-2680928D01*
X25214286Y-2680928D02*
X25214286Y-3180928D01*
X25214286Y-3180928D02*
X25142857Y-3466642D01*
X25142857Y-3466642D02*
X25000000Y-3609500D01*
X25000000Y-3609500D02*
X24857143Y-3680928D01*
X24857143Y-3680928D02*
X24571429Y-3680928D01*
X24571429Y-3680928D02*
X24428572Y-3609500D01*
X24428572Y-3609500D02*
X24285714Y-3466642D01*
X24285714Y-3466642D02*
X24214286Y-3180928D01*
X24214286Y-3180928D02*
X24214286Y-2680928D01*
X24214286Y-2680928D02*
X24285714Y-2395214D01*
X24285714Y-2395214D02*
X24428572Y-2252357D01*
X24428572Y-2252357D02*
X24571429Y-2180928D01*
X25857143Y-2680928D02*
X25857143Y-4180928D01*
X25857143Y-2752357D02*
X26000001Y-2680928D01*
X26000001Y-2680928D02*
X26285715Y-2680928D01*
X26285715Y-2680928D02*
X26428572Y-2752357D01*
X26428572Y-2752357D02*
X26500001Y-2823785D01*
X26500001Y-2823785D02*
X26571429Y-2966642D01*
X26571429Y-2966642D02*
X26571429Y-3395214D01*
X26571429Y-3395214D02*
X26500001Y-3538071D01*
X26500001Y-3538071D02*
X26428572Y-3609500D01*
X26428572Y-3609500D02*
X26285715Y-3680928D01*
X26285715Y-3680928D02*
X26000001Y-3680928D01*
X26000001Y-3680928D02*
X25857143Y-3609500D01*
X27785715Y-3609500D02*
X27642858Y-3680928D01*
X27642858Y-3680928D02*
X27357144Y-3680928D01*
X27357144Y-3680928D02*
X27214286Y-3609500D01*
X27214286Y-3609500D02*
X27142858Y-3466642D01*
X27142858Y-3466642D02*
X27142858Y-2895214D01*
X27142858Y-2895214D02*
X27214286Y-2752357D01*
X27214286Y-2752357D02*
X27357144Y-2680928D01*
X27357144Y-2680928D02*
X27642858Y-2680928D01*
X27642858Y-2680928D02*
X27785715Y-2752357D01*
X27785715Y-2752357D02*
X27857144Y-2895214D01*
X27857144Y-2895214D02*
X27857144Y-3038071D01*
X27857144Y-3038071D02*
X27142858Y-3180928D01*
X28500000Y-2680928D02*
X28500000Y-3680928D01*
X28500000Y-2823785D02*
X28571429Y-2752357D01*
X28571429Y-2752357D02*
X28714286Y-2680928D01*
X28714286Y-2680928D02*
X28928572Y-2680928D01*
X28928572Y-2680928D02*
X29071429Y-2752357D01*
X29071429Y-2752357D02*
X29142858Y-2895214D01*
X29142858Y-2895214D02*
X29142858Y-3680928D01*
X29857143Y-3680928D02*
X29857143Y-2180928D01*
X29857143Y-2180928D02*
X30214286Y-2180928D01*
X30214286Y-2180928D02*
X30428572Y-2252357D01*
X30428572Y-2252357D02*
X30571429Y-2395214D01*
X30571429Y-2395214D02*
X30642858Y-2538071D01*
X30642858Y-2538071D02*
X30714286Y-2823785D01*
X30714286Y-2823785D02*
X30714286Y-3038071D01*
X30714286Y-3038071D02*
X30642858Y-3323785D01*
X30642858Y-3323785D02*
X30571429Y-3466642D01*
X30571429Y-3466642D02*
X30428572Y-3609500D01*
X30428572Y-3609500D02*
X30214286Y-3680928D01*
X30214286Y-3680928D02*
X29857143Y-3680928D01*
X31142858Y-2180928D02*
X32000001Y-2180928D01*
X31571429Y-3680928D02*
X31571429Y-2180928D01*
X32500000Y-2180928D02*
X32500000Y-3395214D01*
X32500000Y-3395214D02*
X32571429Y-3538071D01*
X32571429Y-3538071D02*
X32642858Y-3609500D01*
X32642858Y-3609500D02*
X32785715Y-3680928D01*
X32785715Y-3680928D02*
X33071429Y-3680928D01*
X33071429Y-3680928D02*
X33214286Y-3609500D01*
X33214286Y-3609500D02*
X33285715Y-3538071D01*
X33285715Y-3538071D02*
X33357143Y-3395214D01*
X33357143Y-3395214D02*
X33357143Y-2180928D01*
X34071429Y-3109500D02*
X35214287Y-3109500D01*
X36214287Y-2180928D02*
X36500001Y-2180928D01*
X36500001Y-2180928D02*
X36642858Y-2252357D01*
X36642858Y-2252357D02*
X36785715Y-2395214D01*
X36785715Y-2395214D02*
X36857144Y-2680928D01*
X36857144Y-2680928D02*
X36857144Y-3180928D01*
X36857144Y-3180928D02*
X36785715Y-3466642D01*
X36785715Y-3466642D02*
X36642858Y-3609500D01*
X36642858Y-3609500D02*
X36500001Y-3680928D01*
X36500001Y-3680928D02*
X36214287Y-3680928D01*
X36214287Y-3680928D02*
X36071430Y-3609500D01*
X36071430Y-3609500D02*
X35928572Y-3466642D01*
X35928572Y-3466642D02*
X35857144Y-3180928D01*
X35857144Y-3180928D02*
X35857144Y-2680928D01*
X35857144Y-2680928D02*
X35928572Y-2395214D01*
X35928572Y-2395214D02*
X36071430Y-2252357D01*
X36071430Y-2252357D02*
X36214287Y-2180928D01*
X37500001Y-2680928D02*
X37500001Y-3680928D01*
X37500001Y-2823785D02*
X37571430Y-2752357D01*
X37571430Y-2752357D02*
X37714287Y-2680928D01*
X37714287Y-2680928D02*
X37928573Y-2680928D01*
X37928573Y-2680928D02*
X38071430Y-2752357D01*
X38071430Y-2752357D02*
X38142859Y-2895214D01*
X38142859Y-2895214D02*
X38142859Y-3680928D01*
X39357144Y-2895214D02*
X39571430Y-2966642D01*
X39571430Y-2966642D02*
X39642859Y-3038071D01*
X39642859Y-3038071D02*
X39714287Y-3180928D01*
X39714287Y-3180928D02*
X39714287Y-3395214D01*
X39714287Y-3395214D02*
X39642859Y-3538071D01*
X39642859Y-3538071D02*
X39571430Y-3609500D01*
X39571430Y-3609500D02*
X39428573Y-3680928D01*
X39428573Y-3680928D02*
X38857144Y-3680928D01*
X38857144Y-3680928D02*
X38857144Y-2180928D01*
X38857144Y-2180928D02*
X39357144Y-2180928D01*
X39357144Y-2180928D02*
X39500002Y-2252357D01*
X39500002Y-2252357D02*
X39571430Y-2323785D01*
X39571430Y-2323785D02*
X39642859Y-2466642D01*
X39642859Y-2466642D02*
X39642859Y-2609500D01*
X39642859Y-2609500D02*
X39571430Y-2752357D01*
X39571430Y-2752357D02*
X39500002Y-2823785D01*
X39500002Y-2823785D02*
X39357144Y-2895214D01*
X39357144Y-2895214D02*
X38857144Y-2895214D01*
X41000002Y-3680928D02*
X41000002Y-2895214D01*
X41000002Y-2895214D02*
X40928573Y-2752357D01*
X40928573Y-2752357D02*
X40785716Y-2680928D01*
X40785716Y-2680928D02*
X40500002Y-2680928D01*
X40500002Y-2680928D02*
X40357144Y-2752357D01*
X41000002Y-3609500D02*
X40857144Y-3680928D01*
X40857144Y-3680928D02*
X40500002Y-3680928D01*
X40500002Y-3680928D02*
X40357144Y-3609500D01*
X40357144Y-3609500D02*
X40285716Y-3466642D01*
X40285716Y-3466642D02*
X40285716Y-3323785D01*
X40285716Y-3323785D02*
X40357144Y-3180928D01*
X40357144Y-3180928D02*
X40500002Y-3109500D01*
X40500002Y-3109500D02*
X40857144Y-3109500D01*
X40857144Y-3109500D02*
X41000002Y-3038071D01*
X41500002Y-2680928D02*
X42071430Y-2680928D01*
X41714287Y-2180928D02*
X41714287Y-3466642D01*
X41714287Y-3466642D02*
X41785716Y-3609500D01*
X41785716Y-3609500D02*
X41928573Y-3680928D01*
X41928573Y-3680928D02*
X42071430Y-3680928D01*
X42357145Y-2680928D02*
X42928573Y-2680928D01*
X42571430Y-2180928D02*
X42571430Y-3466642D01*
X42571430Y-3466642D02*
X42642859Y-3609500D01*
X42642859Y-3609500D02*
X42785716Y-3680928D01*
X42785716Y-3680928D02*
X42928573Y-3680928D01*
X44000002Y-3609500D02*
X43857145Y-3680928D01*
X43857145Y-3680928D02*
X43571431Y-3680928D01*
X43571431Y-3680928D02*
X43428573Y-3609500D01*
X43428573Y-3609500D02*
X43357145Y-3466642D01*
X43357145Y-3466642D02*
X43357145Y-2895214D01*
X43357145Y-2895214D02*
X43428573Y-2752357D01*
X43428573Y-2752357D02*
X43571431Y-2680928D01*
X43571431Y-2680928D02*
X43857145Y-2680928D01*
X43857145Y-2680928D02*
X44000002Y-2752357D01*
X44000002Y-2752357D02*
X44071431Y-2895214D01*
X44071431Y-2895214D02*
X44071431Y-3038071D01*
X44071431Y-3038071D02*
X43357145Y-3180928D01*
X44714287Y-3680928D02*
X44714287Y-2680928D01*
X44714287Y-2966642D02*
X44785716Y-2823785D01*
X44785716Y-2823785D02*
X44857145Y-2752357D01*
X44857145Y-2752357D02*
X45000002Y-2680928D01*
X45000002Y-2680928D02*
X45142859Y-2680928D01*
X45500001Y-2680928D02*
X45857144Y-3680928D01*
X46214287Y-2680928D02*
X45857144Y-3680928D01*
X45857144Y-3680928D02*
X45714287Y-4038071D01*
X45714287Y-4038071D02*
X45642858Y-4109500D01*
X45642858Y-4109500D02*
X45500001Y-4180928D01*
X48785715Y-3538071D02*
X48714287Y-3609500D01*
X48714287Y-3609500D02*
X48500001Y-3680928D01*
X48500001Y-3680928D02*
X48357144Y-3680928D01*
X48357144Y-3680928D02*
X48142858Y-3609500D01*
X48142858Y-3609500D02*
X48000001Y-3466642D01*
X48000001Y-3466642D02*
X47928572Y-3323785D01*
X47928572Y-3323785D02*
X47857144Y-3038071D01*
X47857144Y-3038071D02*
X47857144Y-2823785D01*
X47857144Y-2823785D02*
X47928572Y-2538071D01*
X47928572Y-2538071D02*
X48000001Y-2395214D01*
X48000001Y-2395214D02*
X48142858Y-2252357D01*
X48142858Y-2252357D02*
X48357144Y-2180928D01*
X48357144Y-2180928D02*
X48500001Y-2180928D01*
X48500001Y-2180928D02*
X48714287Y-2252357D01*
X48714287Y-2252357D02*
X48785715Y-2323785D01*
X50071430Y-3680928D02*
X50071430Y-2895214D01*
X50071430Y-2895214D02*
X50000001Y-2752357D01*
X50000001Y-2752357D02*
X49857144Y-2680928D01*
X49857144Y-2680928D02*
X49571430Y-2680928D01*
X49571430Y-2680928D02*
X49428572Y-2752357D01*
X50071430Y-3609500D02*
X49928572Y-3680928D01*
X49928572Y-3680928D02*
X49571430Y-3680928D01*
X49571430Y-3680928D02*
X49428572Y-3609500D01*
X49428572Y-3609500D02*
X49357144Y-3466642D01*
X49357144Y-3466642D02*
X49357144Y-3323785D01*
X49357144Y-3323785D02*
X49428572Y-3180928D01*
X49428572Y-3180928D02*
X49571430Y-3109500D01*
X49571430Y-3109500D02*
X49928572Y-3109500D01*
X49928572Y-3109500D02*
X50071430Y-3038071D01*
X50785715Y-3680928D02*
X50785715Y-2680928D01*
X50785715Y-2966642D02*
X50857144Y-2823785D01*
X50857144Y-2823785D02*
X50928573Y-2752357D01*
X50928573Y-2752357D02*
X51071430Y-2680928D01*
X51071430Y-2680928D02*
X51214287Y-2680928D01*
X51714286Y-3680928D02*
X51714286Y-2680928D01*
X51714286Y-2966642D02*
X51785715Y-2823785D01*
X51785715Y-2823785D02*
X51857144Y-2752357D01*
X51857144Y-2752357D02*
X52000001Y-2680928D01*
X52000001Y-2680928D02*
X52142858Y-2680928D01*
X52642857Y-3680928D02*
X52642857Y-2680928D01*
X52642857Y-2180928D02*
X52571429Y-2252357D01*
X52571429Y-2252357D02*
X52642857Y-2323785D01*
X52642857Y-2323785D02*
X52714286Y-2252357D01*
X52714286Y-2252357D02*
X52642857Y-2180928D01*
X52642857Y-2180928D02*
X52642857Y-2323785D01*
X53928572Y-3609500D02*
X53785715Y-3680928D01*
X53785715Y-3680928D02*
X53500001Y-3680928D01*
X53500001Y-3680928D02*
X53357143Y-3609500D01*
X53357143Y-3609500D02*
X53285715Y-3466642D01*
X53285715Y-3466642D02*
X53285715Y-2895214D01*
X53285715Y-2895214D02*
X53357143Y-2752357D01*
X53357143Y-2752357D02*
X53500001Y-2680928D01*
X53500001Y-2680928D02*
X53785715Y-2680928D01*
X53785715Y-2680928D02*
X53928572Y-2752357D01*
X53928572Y-2752357D02*
X54000001Y-2895214D01*
X54000001Y-2895214D02*
X54000001Y-3038071D01*
X54000001Y-3038071D02*
X53285715Y-3180928D01*
X54642857Y-3680928D02*
X54642857Y-2680928D01*
X54642857Y-2966642D02*
X54714286Y-2823785D01*
X54714286Y-2823785D02*
X54785715Y-2752357D01*
X54785715Y-2752357D02*
X54928572Y-2680928D01*
X54928572Y-2680928D02*
X55071429Y-2680928D01*
X56571428Y-2680928D02*
X56928571Y-3680928D01*
X56928571Y-3680928D02*
X57285714Y-2680928D01*
X57785714Y-2323785D02*
X57857142Y-2252357D01*
X57857142Y-2252357D02*
X58000000Y-2180928D01*
X58000000Y-2180928D02*
X58357142Y-2180928D01*
X58357142Y-2180928D02*
X58500000Y-2252357D01*
X58500000Y-2252357D02*
X58571428Y-2323785D01*
X58571428Y-2323785D02*
X58642857Y-2466642D01*
X58642857Y-2466642D02*
X58642857Y-2609500D01*
X58642857Y-2609500D02*
X58571428Y-2823785D01*
X58571428Y-2823785D02*
X57714285Y-3680928D01*
X57714285Y-3680928D02*
X58642857Y-3680928D01*
X59285713Y-3538071D02*
X59357142Y-3609500D01*
X59357142Y-3609500D02*
X59285713Y-3680928D01*
X59285713Y-3680928D02*
X59214285Y-3609500D01*
X59214285Y-3609500D02*
X59285713Y-3538071D01*
X59285713Y-3538071D02*
X59285713Y-3680928D01*
X60285714Y-2180928D02*
X60428571Y-2180928D01*
X60428571Y-2180928D02*
X60571428Y-2252357D01*
X60571428Y-2252357D02*
X60642857Y-2323785D01*
X60642857Y-2323785D02*
X60714285Y-2466642D01*
X60714285Y-2466642D02*
X60785714Y-2752357D01*
X60785714Y-2752357D02*
X60785714Y-3109500D01*
X60785714Y-3109500D02*
X60714285Y-3395214D01*
X60714285Y-3395214D02*
X60642857Y-3538071D01*
X60642857Y-3538071D02*
X60571428Y-3609500D01*
X60571428Y-3609500D02*
X60428571Y-3680928D01*
X60428571Y-3680928D02*
X60285714Y-3680928D01*
X60285714Y-3680928D02*
X60142857Y-3609500D01*
X60142857Y-3609500D02*
X60071428Y-3538071D01*
X60071428Y-3538071D02*
X59999999Y-3395214D01*
X59999999Y-3395214D02*
X59928571Y-3109500D01*
X59928571Y-3109500D02*
X59928571Y-2752357D01*
X59928571Y-2752357D02*
X59999999Y-2466642D01*
X59999999Y-2466642D02*
X60071428Y-2323785D01*
X60071428Y-2323785D02*
X60142857Y-2252357D01*
X60142857Y-2252357D02*
X60285714Y-2180928D01*
D11*
X32422618Y-38953259D02*
X32547618Y-37953259D01*
X32857142Y-38905640D02*
X32994046Y-38953259D01*
X32994046Y-38953259D02*
X33232142Y-38953259D01*
X33232142Y-38953259D02*
X33333332Y-38905640D01*
X33333332Y-38905640D02*
X33386904Y-38858020D01*
X33386904Y-38858020D02*
X33446427Y-38762782D01*
X33446427Y-38762782D02*
X33458332Y-38667544D01*
X33458332Y-38667544D02*
X33422618Y-38572306D01*
X33422618Y-38572306D02*
X33380951Y-38524687D01*
X33380951Y-38524687D02*
X33291666Y-38477068D01*
X33291666Y-38477068D02*
X33107142Y-38429449D01*
X33107142Y-38429449D02*
X33017856Y-38381830D01*
X33017856Y-38381830D02*
X32976189Y-38334211D01*
X32976189Y-38334211D02*
X32940475Y-38238973D01*
X32940475Y-38238973D02*
X32952380Y-38143735D01*
X32952380Y-38143735D02*
X33011904Y-38048497D01*
X33011904Y-38048497D02*
X33065475Y-38000878D01*
X33065475Y-38000878D02*
X33166666Y-37953259D01*
X33166666Y-37953259D02*
X33404761Y-37953259D01*
X33404761Y-37953259D02*
X33541666Y-38000878D01*
X34166666Y-37953259D02*
X34357142Y-37953259D01*
X34357142Y-37953259D02*
X34446427Y-38000878D01*
X34446427Y-38000878D02*
X34529761Y-38096116D01*
X34529761Y-38096116D02*
X34553570Y-38286592D01*
X34553570Y-38286592D02*
X34511904Y-38619925D01*
X34511904Y-38619925D02*
X34440475Y-38810401D01*
X34440475Y-38810401D02*
X34333332Y-38905640D01*
X34333332Y-38905640D02*
X34232142Y-38953259D01*
X34232142Y-38953259D02*
X34041666Y-38953259D01*
X34041666Y-38953259D02*
X33952380Y-38905640D01*
X33952380Y-38905640D02*
X33869047Y-38810401D01*
X33869047Y-38810401D02*
X33845237Y-38619925D01*
X33845237Y-38619925D02*
X33886904Y-38286592D01*
X33886904Y-38286592D02*
X33958332Y-38096116D01*
X33958332Y-38096116D02*
X34065475Y-38000878D01*
X34065475Y-38000878D02*
X34166666Y-37953259D01*
X35374999Y-38953259D02*
X34898808Y-38953259D01*
X34898808Y-38953259D02*
X35023808Y-37953259D01*
X35696428Y-38667544D02*
X36172618Y-38667544D01*
X35565475Y-38953259D02*
X36023809Y-37953259D01*
X36023809Y-37953259D02*
X36232142Y-38953259D01*
X36547618Y-37953259D02*
X37119047Y-37953259D01*
X36708333Y-38953259D02*
X36833333Y-37953259D01*
X37327380Y-38953259D02*
X37452380Y-37953259D01*
X38119047Y-37953259D02*
X38309523Y-37953259D01*
X38309523Y-37953259D02*
X38398808Y-38000878D01*
X38398808Y-38000878D02*
X38482142Y-38096116D01*
X38482142Y-38096116D02*
X38505951Y-38286592D01*
X38505951Y-38286592D02*
X38464285Y-38619925D01*
X38464285Y-38619925D02*
X38392856Y-38810401D01*
X38392856Y-38810401D02*
X38285713Y-38905640D01*
X38285713Y-38905640D02*
X38184523Y-38953259D01*
X38184523Y-38953259D02*
X37994047Y-38953259D01*
X37994047Y-38953259D02*
X37904761Y-38905640D01*
X37904761Y-38905640D02*
X37821428Y-38810401D01*
X37821428Y-38810401D02*
X37797618Y-38619925D01*
X37797618Y-38619925D02*
X37839285Y-38286592D01*
X37839285Y-38286592D02*
X37910713Y-38096116D01*
X37910713Y-38096116D02*
X38017856Y-38000878D01*
X38017856Y-38000878D02*
X38119047Y-37953259D01*
X38851189Y-38953259D02*
X38976189Y-37953259D01*
X38976189Y-37953259D02*
X39422618Y-38953259D01*
X39422618Y-38953259D02*
X39547618Y-37953259D01*
X41059523Y-38429449D02*
X41196428Y-38477068D01*
X41196428Y-38477068D02*
X41238094Y-38524687D01*
X41238094Y-38524687D02*
X41273809Y-38619925D01*
X41273809Y-38619925D02*
X41255951Y-38762782D01*
X41255951Y-38762782D02*
X41196428Y-38858020D01*
X41196428Y-38858020D02*
X41142856Y-38905640D01*
X41142856Y-38905640D02*
X41041666Y-38953259D01*
X41041666Y-38953259D02*
X40660713Y-38953259D01*
X40660713Y-38953259D02*
X40785713Y-37953259D01*
X40785713Y-37953259D02*
X41119047Y-37953259D01*
X41119047Y-37953259D02*
X41208332Y-38000878D01*
X41208332Y-38000878D02*
X41249999Y-38048497D01*
X41249999Y-38048497D02*
X41285713Y-38143735D01*
X41285713Y-38143735D02*
X41273809Y-38238973D01*
X41273809Y-38238973D02*
X41214285Y-38334211D01*
X41214285Y-38334211D02*
X41160713Y-38381830D01*
X41160713Y-38381830D02*
X41059523Y-38429449D01*
X41059523Y-38429449D02*
X40726190Y-38429449D01*
X41648809Y-38667544D02*
X42124999Y-38667544D01*
X41517856Y-38953259D02*
X41976190Y-37953259D01*
X41976190Y-37953259D02*
X42184523Y-38953259D01*
X43089285Y-38953259D02*
X42815475Y-38477068D01*
X42517856Y-38953259D02*
X42642856Y-37953259D01*
X42642856Y-37953259D02*
X43023809Y-37953259D01*
X43023809Y-37953259D02*
X43113094Y-38000878D01*
X43113094Y-38000878D02*
X43154761Y-38048497D01*
X43154761Y-38048497D02*
X43190475Y-38143735D01*
X43190475Y-38143735D02*
X43172618Y-38286592D01*
X43172618Y-38286592D02*
X43113094Y-38381830D01*
X43113094Y-38381830D02*
X43059523Y-38429449D01*
X43059523Y-38429449D02*
X42958333Y-38477068D01*
X42958333Y-38477068D02*
X42577380Y-38477068D01*
X44089285Y-38953259D02*
X43815475Y-38477068D01*
X43517856Y-38953259D02*
X43642856Y-37953259D01*
X43642856Y-37953259D02*
X44023809Y-37953259D01*
X44023809Y-37953259D02*
X44113094Y-38000878D01*
X44113094Y-38000878D02*
X44154761Y-38048497D01*
X44154761Y-38048497D02*
X44190475Y-38143735D01*
X44190475Y-38143735D02*
X44172618Y-38286592D01*
X44172618Y-38286592D02*
X44113094Y-38381830D01*
X44113094Y-38381830D02*
X44059523Y-38429449D01*
X44059523Y-38429449D02*
X43958333Y-38477068D01*
X43958333Y-38477068D02*
X43577380Y-38477068D01*
X44517856Y-38953259D02*
X44642856Y-37953259D01*
X45059523Y-38429449D02*
X45392856Y-38429449D01*
X45470237Y-38953259D02*
X44994046Y-38953259D01*
X44994046Y-38953259D02*
X45119046Y-37953259D01*
X45119046Y-37953259D02*
X45595237Y-37953259D01*
X46470237Y-38953259D02*
X46196427Y-38477068D01*
X45898808Y-38953259D02*
X46023808Y-37953259D01*
X46023808Y-37953259D02*
X46404761Y-37953259D01*
X46404761Y-37953259D02*
X46494046Y-38000878D01*
X46494046Y-38000878D02*
X46535713Y-38048497D01*
X46535713Y-38048497D02*
X46571427Y-38143735D01*
X46571427Y-38143735D02*
X46553570Y-38286592D01*
X46553570Y-38286592D02*
X46494046Y-38381830D01*
X46494046Y-38381830D02*
X46440475Y-38429449D01*
X46440475Y-38429449D02*
X46339285Y-38477068D01*
X46339285Y-38477068D02*
X45958332Y-38477068D01*
X47898809Y-39334211D02*
X47857142Y-39286592D01*
X47857142Y-39286592D02*
X47779761Y-39143735D01*
X47779761Y-39143735D02*
X47744047Y-39048497D01*
X47744047Y-39048497D02*
X47714285Y-38905640D01*
X47714285Y-38905640D02*
X47696428Y-38667544D01*
X47696428Y-38667544D02*
X47720237Y-38477068D01*
X47720237Y-38477068D02*
X47797618Y-38238973D01*
X47797618Y-38238973D02*
X47863094Y-38096116D01*
X47863094Y-38096116D02*
X47922618Y-38000878D01*
X47922618Y-38000878D02*
X48035713Y-37858020D01*
X48035713Y-37858020D02*
X48089285Y-37810401D01*
X48851190Y-38953259D02*
X48279761Y-38953259D01*
X48565476Y-38953259D02*
X48690476Y-37953259D01*
X48690476Y-37953259D02*
X48577380Y-38096116D01*
X48577380Y-38096116D02*
X48470238Y-38191354D01*
X48470238Y-38191354D02*
X48369047Y-38238973D01*
X49291666Y-38858020D02*
X49333333Y-38905640D01*
X49333333Y-38905640D02*
X49279761Y-38953259D01*
X49279761Y-38953259D02*
X49238095Y-38905640D01*
X49238095Y-38905640D02*
X49291666Y-38858020D01*
X49291666Y-38858020D02*
X49279761Y-38953259D01*
X50357142Y-37953259D02*
X49880951Y-37953259D01*
X49880951Y-37953259D02*
X49773809Y-38429449D01*
X49773809Y-38429449D02*
X49827380Y-38381830D01*
X49827380Y-38381830D02*
X49928570Y-38334211D01*
X49928570Y-38334211D02*
X50166666Y-38334211D01*
X50166666Y-38334211D02*
X50255951Y-38381830D01*
X50255951Y-38381830D02*
X50297618Y-38429449D01*
X50297618Y-38429449D02*
X50333332Y-38524687D01*
X50333332Y-38524687D02*
X50303570Y-38762782D01*
X50303570Y-38762782D02*
X50244047Y-38858020D01*
X50244047Y-38858020D02*
X50190475Y-38905640D01*
X50190475Y-38905640D02*
X50089285Y-38953259D01*
X50089285Y-38953259D02*
X49851189Y-38953259D01*
X49851189Y-38953259D02*
X49761904Y-38905640D01*
X49761904Y-38905640D02*
X49720237Y-38858020D01*
X50708332Y-38953259D02*
X50833332Y-37953259D01*
X50851190Y-38572306D02*
X51089285Y-38953259D01*
X51172618Y-38286592D02*
X50744047Y-38667544D01*
X51499999Y-37953259D02*
X51708333Y-38953259D01*
X51708333Y-38953259D02*
X52166666Y-37953259D01*
X52232142Y-39334211D02*
X52285714Y-39286592D01*
X52285714Y-39286592D02*
X52398809Y-39143735D01*
X52398809Y-39143735D02*
X52458333Y-39048497D01*
X52458333Y-39048497D02*
X52523809Y-38905640D01*
X52523809Y-38905640D02*
X52601190Y-38667544D01*
X52601190Y-38667544D02*
X52624999Y-38477068D01*
X52624999Y-38477068D02*
X52607142Y-38238973D01*
X52607142Y-38238973D02*
X52577380Y-38096116D01*
X52577380Y-38096116D02*
X52541666Y-38000878D01*
X52541666Y-38000878D02*
X52464285Y-37858020D01*
X52464285Y-37858020D02*
X52422618Y-37810401D01*
D12*
X2000000Y-39500000D02*
X4200000Y-39500000D01*
X5000000Y-39500000D02*
X7200000Y-39500000D01*
X8000000Y-39500000D02*
X10200000Y-39500000D01*
X11000000Y-39500000D02*
X13200000Y-39500000D01*
X14000000Y-39500000D02*
X16200000Y-39500000D01*
X17000000Y-39500000D02*
X19200000Y-39500000D01*
X20000000Y-39500000D02*
X22200000Y-39500000D01*
X23000000Y-39500000D02*
X25200000Y-39500000D01*
X26000000Y-39500000D02*
X28200000Y-39500000D01*
X29000000Y-39500000D02*
X31200000Y-39500000D01*
X32000000Y-39500000D02*
X34200000Y-39500000D01*
X35000000Y-39500000D02*
X37200000Y-39500000D01*
X38000000Y-39500000D02*
X40200000Y-39500000D01*
X41000000Y-39500000D02*
X43200000Y-39500000D01*
X44000000Y-39500000D02*
X46200000Y-39500000D01*
X47000000Y-39500000D02*
X49200000Y-39500000D01*
X50000000Y-39500000D02*
X52200000Y-39500000D01*
X53000000Y-39500000D02*
X55200000Y-39500000D01*
X56000000Y-39500000D02*
X58200000Y-39500000D01*
X59000000Y-39500000D02*
X61200000Y-39500000D01*
X62000000Y-39500000D02*
X64200000Y-39500000D01*
X65000000Y-39500000D02*
X67200000Y-39500000D01*
X68000000Y-39500000D02*
X70200000Y-39500000D01*
X71000000Y-39500000D02*
X73200000Y-39500000D01*
X74000000Y-39500000D02*
X76200000Y-39500000D01*
X77000000Y-39500000D02*
X79200000Y-39500000D01*
X80000000Y-39500000D02*
X82200000Y-39500000D01*
X83000000Y-39500000D02*
X83000000Y-39500000D01*
D13*
X4714285Y-46408557D02*
X4714285Y-45508557D01*
X4714285Y-45508557D02*
X4928571Y-45508557D01*
X4928571Y-45508557D02*
X5057142Y-45551414D01*
X5057142Y-45551414D02*
X5142857Y-45637128D01*
X5142857Y-45637128D02*
X5185714Y-45722842D01*
X5185714Y-45722842D02*
X5228571Y-45894271D01*
X5228571Y-45894271D02*
X5228571Y-46022842D01*
X5228571Y-46022842D02*
X5185714Y-46194271D01*
X5185714Y-46194271D02*
X5142857Y-46279985D01*
X5142857Y-46279985D02*
X5057142Y-46365700D01*
X5057142Y-46365700D02*
X4928571Y-46408557D01*
X4928571Y-46408557D02*
X4714285Y-46408557D01*
X6128571Y-46322842D02*
X6085714Y-46365700D01*
X6085714Y-46365700D02*
X5957142Y-46408557D01*
X5957142Y-46408557D02*
X5871428Y-46408557D01*
X5871428Y-46408557D02*
X5742857Y-46365700D01*
X5742857Y-46365700D02*
X5657142Y-46279985D01*
X5657142Y-46279985D02*
X5614285Y-46194271D01*
X5614285Y-46194271D02*
X5571428Y-46022842D01*
X5571428Y-46022842D02*
X5571428Y-45894271D01*
X5571428Y-45894271D02*
X5614285Y-45722842D01*
X5614285Y-45722842D02*
X5657142Y-45637128D01*
X5657142Y-45637128D02*
X5742857Y-45551414D01*
X5742857Y-45551414D02*
X5871428Y-45508557D01*
X5871428Y-45508557D02*
X5957142Y-45508557D01*
X5957142Y-45508557D02*
X6085714Y-45551414D01*
X6085714Y-45551414D02*
X6128571Y-45594271D01*
X7199999Y-46408557D02*
X7199999Y-45508557D01*
X7628570Y-46408557D02*
X7628570Y-45508557D01*
X7628570Y-45508557D02*
X8142856Y-46408557D01*
X8142856Y-46408557D02*
X8142856Y-45508557D01*
X9299998Y-46408557D02*
X9471427Y-46408557D01*
X9471427Y-46408557D02*
X9557141Y-46365700D01*
X9557141Y-46365700D02*
X9599998Y-46322842D01*
X9599998Y-46322842D02*
X9685713Y-46194271D01*
X9685713Y-46194271D02*
X9728570Y-46022842D01*
X9728570Y-46022842D02*
X9728570Y-45679985D01*
X9728570Y-45679985D02*
X9685713Y-45594271D01*
X9685713Y-45594271D02*
X9642856Y-45551414D01*
X9642856Y-45551414D02*
X9557141Y-45508557D01*
X9557141Y-45508557D02*
X9385713Y-45508557D01*
X9385713Y-45508557D02*
X9299998Y-45551414D01*
X9299998Y-45551414D02*
X9257141Y-45594271D01*
X9257141Y-45594271D02*
X9214284Y-45679985D01*
X9214284Y-45679985D02*
X9214284Y-45894271D01*
X9214284Y-45894271D02*
X9257141Y-45979985D01*
X9257141Y-45979985D02*
X9299998Y-46022842D01*
X9299998Y-46022842D02*
X9385713Y-46065700D01*
X9385713Y-46065700D02*
X9557141Y-46065700D01*
X9557141Y-46065700D02*
X9642856Y-46022842D01*
X9642856Y-46022842D02*
X9685713Y-45979985D01*
X9685713Y-45979985D02*
X9728570Y-45894271D01*
X10114284Y-46065700D02*
X10799999Y-46065700D01*
X11357142Y-45894271D02*
X11271427Y-45851414D01*
X11271427Y-45851414D02*
X11228570Y-45808557D01*
X11228570Y-45808557D02*
X11185713Y-45722842D01*
X11185713Y-45722842D02*
X11185713Y-45679985D01*
X11185713Y-45679985D02*
X11228570Y-45594271D01*
X11228570Y-45594271D02*
X11271427Y-45551414D01*
X11271427Y-45551414D02*
X11357142Y-45508557D01*
X11357142Y-45508557D02*
X11528570Y-45508557D01*
X11528570Y-45508557D02*
X11614285Y-45551414D01*
X11614285Y-45551414D02*
X11657142Y-45594271D01*
X11657142Y-45594271D02*
X11699999Y-45679985D01*
X11699999Y-45679985D02*
X11699999Y-45722842D01*
X11699999Y-45722842D02*
X11657142Y-45808557D01*
X11657142Y-45808557D02*
X11614285Y-45851414D01*
X11614285Y-45851414D02*
X11528570Y-45894271D01*
X11528570Y-45894271D02*
X11357142Y-45894271D01*
X11357142Y-45894271D02*
X11271427Y-45937128D01*
X11271427Y-45937128D02*
X11228570Y-45979985D01*
X11228570Y-45979985D02*
X11185713Y-46065700D01*
X11185713Y-46065700D02*
X11185713Y-46237128D01*
X11185713Y-46237128D02*
X11228570Y-46322842D01*
X11228570Y-46322842D02*
X11271427Y-46365700D01*
X11271427Y-46365700D02*
X11357142Y-46408557D01*
X11357142Y-46408557D02*
X11528570Y-46408557D01*
X11528570Y-46408557D02*
X11614285Y-46365700D01*
X11614285Y-46365700D02*
X11657142Y-46322842D01*
X11657142Y-46322842D02*
X11699999Y-46237128D01*
X11699999Y-46237128D02*
X11699999Y-46065700D01*
X11699999Y-46065700D02*
X11657142Y-45979985D01*
X11657142Y-45979985D02*
X11614285Y-45937128D01*
X11614285Y-45937128D02*
X11528570Y-45894271D01*
X12257142Y-45508557D02*
X12342856Y-45508557D01*
X12342856Y-45508557D02*
X12428570Y-45551414D01*
X12428570Y-45551414D02*
X12471428Y-45594271D01*
X12471428Y-45594271D02*
X12514285Y-45679985D01*
X12514285Y-45679985D02*
X12557142Y-45851414D01*
X12557142Y-45851414D02*
X12557142Y-46065700D01*
X12557142Y-46065700D02*
X12514285Y-46237128D01*
X12514285Y-46237128D02*
X12471428Y-46322842D01*
X12471428Y-46322842D02*
X12428570Y-46365700D01*
X12428570Y-46365700D02*
X12342856Y-46408557D01*
X12342856Y-46408557D02*
X12257142Y-46408557D01*
X12257142Y-46408557D02*
X12171428Y-46365700D01*
X12171428Y-46365700D02*
X12128570Y-46322842D01*
X12128570Y-46322842D02*
X12085713Y-46237128D01*
X12085713Y-46237128D02*
X12042856Y-46065700D01*
X12042856Y-46065700D02*
X12042856Y-45851414D01*
X12042856Y-45851414D02*
X12085713Y-45679985D01*
X12085713Y-45679985D02*
X12128570Y-45594271D01*
X12128570Y-45594271D02*
X12171428Y-45551414D01*
X12171428Y-45551414D02*
X12257142Y-45508557D01*
X12814285Y-45508557D02*
X13114285Y-46408557D01*
X13114285Y-46408557D02*
X13414285Y-45508557D01*
X24507142Y-46408557D02*
X24207142Y-45979985D01*
X23992856Y-46408557D02*
X23992856Y-45508557D01*
X23992856Y-45508557D02*
X24335713Y-45508557D01*
X24335713Y-45508557D02*
X24421428Y-45551414D01*
X24421428Y-45551414D02*
X24464285Y-45594271D01*
X24464285Y-45594271D02*
X24507142Y-45679985D01*
X24507142Y-45679985D02*
X24507142Y-45808557D01*
X24507142Y-45808557D02*
X24464285Y-45894271D01*
X24464285Y-45894271D02*
X24421428Y-45937128D01*
X24421428Y-45937128D02*
X24335713Y-45979985D01*
X24335713Y-45979985D02*
X23992856Y-45979985D01*
X24849999Y-46365700D02*
X24978571Y-46408557D01*
X24978571Y-46408557D02*
X25192856Y-46408557D01*
X25192856Y-46408557D02*
X25278571Y-46365700D01*
X25278571Y-46365700D02*
X25321428Y-46322842D01*
X25321428Y-46322842D02*
X25364285Y-46237128D01*
X25364285Y-46237128D02*
X25364285Y-46151414D01*
X25364285Y-46151414D02*
X25321428Y-46065700D01*
X25321428Y-46065700D02*
X25278571Y-46022842D01*
X25278571Y-46022842D02*
X25192856Y-45979985D01*
X25192856Y-45979985D02*
X25021428Y-45937128D01*
X25021428Y-45937128D02*
X24935713Y-45894271D01*
X24935713Y-45894271D02*
X24892856Y-45851414D01*
X24892856Y-45851414D02*
X24849999Y-45765700D01*
X24849999Y-45765700D02*
X24849999Y-45679985D01*
X24849999Y-45679985D02*
X24892856Y-45594271D01*
X24892856Y-45594271D02*
X24935713Y-45551414D01*
X24935713Y-45551414D02*
X25021428Y-45508557D01*
X25021428Y-45508557D02*
X25235713Y-45508557D01*
X25235713Y-45508557D02*
X25364285Y-45551414D01*
X25749999Y-46065700D02*
X26435714Y-46065700D01*
X27250000Y-45808557D02*
X27250000Y-46408557D01*
X27035714Y-45465700D02*
X26821428Y-46108557D01*
X26821428Y-46108557D02*
X27378571Y-46108557D01*
X27850000Y-45894271D02*
X27764285Y-45851414D01*
X27764285Y-45851414D02*
X27721428Y-45808557D01*
X27721428Y-45808557D02*
X27678571Y-45722842D01*
X27678571Y-45722842D02*
X27678571Y-45679985D01*
X27678571Y-45679985D02*
X27721428Y-45594271D01*
X27721428Y-45594271D02*
X27764285Y-45551414D01*
X27764285Y-45551414D02*
X27850000Y-45508557D01*
X27850000Y-45508557D02*
X28021428Y-45508557D01*
X28021428Y-45508557D02*
X28107143Y-45551414D01*
X28107143Y-45551414D02*
X28150000Y-45594271D01*
X28150000Y-45594271D02*
X28192857Y-45679985D01*
X28192857Y-45679985D02*
X28192857Y-45722842D01*
X28192857Y-45722842D02*
X28150000Y-45808557D01*
X28150000Y-45808557D02*
X28107143Y-45851414D01*
X28107143Y-45851414D02*
X28021428Y-45894271D01*
X28021428Y-45894271D02*
X27850000Y-45894271D01*
X27850000Y-45894271D02*
X27764285Y-45937128D01*
X27764285Y-45937128D02*
X27721428Y-45979985D01*
X27721428Y-45979985D02*
X27678571Y-46065700D01*
X27678571Y-46065700D02*
X27678571Y-46237128D01*
X27678571Y-46237128D02*
X27721428Y-46322842D01*
X27721428Y-46322842D02*
X27764285Y-46365700D01*
X27764285Y-46365700D02*
X27850000Y-46408557D01*
X27850000Y-46408557D02*
X28021428Y-46408557D01*
X28021428Y-46408557D02*
X28107143Y-46365700D01*
X28107143Y-46365700D02*
X28150000Y-46322842D01*
X28150000Y-46322842D02*
X28192857Y-46237128D01*
X28192857Y-46237128D02*
X28192857Y-46065700D01*
X28192857Y-46065700D02*
X28150000Y-45979985D01*
X28150000Y-45979985D02*
X28107143Y-45937128D01*
X28107143Y-45937128D02*
X28021428Y-45894271D01*
X29007143Y-45508557D02*
X28578571Y-45508557D01*
X28578571Y-45508557D02*
X28535714Y-45937128D01*
X28535714Y-45937128D02*
X28578571Y-45894271D01*
X28578571Y-45894271D02*
X28664286Y-45851414D01*
X28664286Y-45851414D02*
X28878571Y-45851414D01*
X28878571Y-45851414D02*
X28964286Y-45894271D01*
X28964286Y-45894271D02*
X29007143Y-45937128D01*
X29007143Y-45937128D02*
X29050000Y-46022842D01*
X29050000Y-46022842D02*
X29050000Y-46237128D01*
X29050000Y-46237128D02*
X29007143Y-46322842D01*
X29007143Y-46322842D02*
X28964286Y-46365700D01*
X28964286Y-46365700D02*
X28878571Y-46408557D01*
X28878571Y-46408557D02*
X28664286Y-46408557D01*
X28664286Y-46408557D02*
X28578571Y-46365700D01*
X28578571Y-46365700D02*
X28535714Y-46322842D01*
X44728571Y-46322842D02*
X44685714Y-46365700D01*
X44685714Y-46365700D02*
X44557142Y-46408557D01*
X44557142Y-46408557D02*
X44471428Y-46408557D01*
X44471428Y-46408557D02*
X44342857Y-46365700D01*
X44342857Y-46365700D02*
X44257142Y-46279985D01*
X44257142Y-46279985D02*
X44214285Y-46194271D01*
X44214285Y-46194271D02*
X44171428Y-46022842D01*
X44171428Y-46022842D02*
X44171428Y-45894271D01*
X44171428Y-45894271D02*
X44214285Y-45722842D01*
X44214285Y-45722842D02*
X44257142Y-45637128D01*
X44257142Y-45637128D02*
X44342857Y-45551414D01*
X44342857Y-45551414D02*
X44471428Y-45508557D01*
X44471428Y-45508557D02*
X44557142Y-45508557D01*
X44557142Y-45508557D02*
X44685714Y-45551414D01*
X44685714Y-45551414D02*
X44728571Y-45594271D01*
X45071428Y-46151414D02*
X45500000Y-46151414D01*
X44985714Y-46408557D02*
X45285714Y-45508557D01*
X45285714Y-45508557D02*
X45585714Y-46408557D01*
X45885714Y-46408557D02*
X45885714Y-45508557D01*
X45885714Y-45508557D02*
X46400000Y-46408557D01*
X46400000Y-46408557D02*
X46400000Y-45508557D01*
X47814285Y-45937128D02*
X47942857Y-45979985D01*
X47942857Y-45979985D02*
X47985714Y-46022842D01*
X47985714Y-46022842D02*
X48028571Y-46108557D01*
X48028571Y-46108557D02*
X48028571Y-46237128D01*
X48028571Y-46237128D02*
X47985714Y-46322842D01*
X47985714Y-46322842D02*
X47942857Y-46365700D01*
X47942857Y-46365700D02*
X47857142Y-46408557D01*
X47857142Y-46408557D02*
X47514285Y-46408557D01*
X47514285Y-46408557D02*
X47514285Y-45508557D01*
X47514285Y-45508557D02*
X47814285Y-45508557D01*
X47814285Y-45508557D02*
X47900000Y-45551414D01*
X47900000Y-45551414D02*
X47942857Y-45594271D01*
X47942857Y-45594271D02*
X47985714Y-45679985D01*
X47985714Y-45679985D02*
X47985714Y-45765700D01*
X47985714Y-45765700D02*
X47942857Y-45851414D01*
X47942857Y-45851414D02*
X47900000Y-45894271D01*
X47900000Y-45894271D02*
X47814285Y-45937128D01*
X47814285Y-45937128D02*
X47514285Y-45937128D01*
X48414285Y-45508557D02*
X48414285Y-46237128D01*
X48414285Y-46237128D02*
X48457142Y-46322842D01*
X48457142Y-46322842D02*
X48500000Y-46365700D01*
X48500000Y-46365700D02*
X48585714Y-46408557D01*
X48585714Y-46408557D02*
X48757142Y-46408557D01*
X48757142Y-46408557D02*
X48842857Y-46365700D01*
X48842857Y-46365700D02*
X48885714Y-46322842D01*
X48885714Y-46322842D02*
X48928571Y-46237128D01*
X48928571Y-46237128D02*
X48928571Y-45508557D01*
X49314285Y-46365700D02*
X49442857Y-46408557D01*
X49442857Y-46408557D02*
X49657142Y-46408557D01*
X49657142Y-46408557D02*
X49742857Y-46365700D01*
X49742857Y-46365700D02*
X49785714Y-46322842D01*
X49785714Y-46322842D02*
X49828571Y-46237128D01*
X49828571Y-46237128D02*
X49828571Y-46151414D01*
X49828571Y-46151414D02*
X49785714Y-46065700D01*
X49785714Y-46065700D02*
X49742857Y-46022842D01*
X49742857Y-46022842D02*
X49657142Y-45979985D01*
X49657142Y-45979985D02*
X49485714Y-45937128D01*
X49485714Y-45937128D02*
X49399999Y-45894271D01*
X49399999Y-45894271D02*
X49357142Y-45851414D01*
X49357142Y-45851414D02*
X49314285Y-45765700D01*
X49314285Y-45765700D02*
X49314285Y-45679985D01*
X49314285Y-45679985D02*
X49357142Y-45594271D01*
X49357142Y-45594271D02*
X49399999Y-45551414D01*
X49399999Y-45551414D02*
X49485714Y-45508557D01*
X49485714Y-45508557D02*
X49699999Y-45508557D01*
X49699999Y-45508557D02*
X49828571Y-45551414D01*
X64707143Y-45508557D02*
X65007143Y-46408557D01*
X65007143Y-46408557D02*
X65307143Y-45508557D01*
X65607143Y-45937128D02*
X65907143Y-45937128D01*
X66035715Y-46408557D02*
X65607143Y-46408557D01*
X65607143Y-46408557D02*
X65607143Y-45508557D01*
X65607143Y-45508557D02*
X66035715Y-45508557D01*
X66421429Y-46322842D02*
X66464286Y-46365700D01*
X66464286Y-46365700D02*
X66421429Y-46408557D01*
X66421429Y-46408557D02*
X66378572Y-46365700D01*
X66378572Y-46365700D02*
X66421429Y-46322842D01*
X66421429Y-46322842D02*
X66421429Y-46408557D01*
X66850000Y-46408557D02*
X66850000Y-45508557D01*
X66850000Y-45508557D02*
X67064286Y-45508557D01*
X67064286Y-45508557D02*
X67192857Y-45551414D01*
X67192857Y-45551414D02*
X67278572Y-45637128D01*
X67278572Y-45637128D02*
X67321429Y-45722842D01*
X67321429Y-45722842D02*
X67364286Y-45894271D01*
X67364286Y-45894271D02*
X67364286Y-46022842D01*
X67364286Y-46022842D02*
X67321429Y-46194271D01*
X67321429Y-46194271D02*
X67278572Y-46279985D01*
X67278572Y-46279985D02*
X67192857Y-46365700D01*
X67192857Y-46365700D02*
X67064286Y-46408557D01*
X67064286Y-46408557D02*
X66850000Y-46408557D01*
X67750000Y-46408557D02*
X67750000Y-45508557D01*
X68692857Y-46408557D02*
X68392857Y-45979985D01*
X68178571Y-46408557D02*
X68178571Y-45508557D01*
X68178571Y-45508557D02*
X68521428Y-45508557D01*
X68521428Y-45508557D02*
X68607143Y-45551414D01*
X68607143Y-45551414D02*
X68650000Y-45594271D01*
X68650000Y-45594271D02*
X68692857Y-45679985D01*
X68692857Y-45679985D02*
X68692857Y-45808557D01*
X68692857Y-45808557D02*
X68650000Y-45894271D01*
X68650000Y-45894271D02*
X68607143Y-45937128D01*
X68607143Y-45937128D02*
X68521428Y-45979985D01*
X68521428Y-45979985D02*
X68178571Y-45979985D01*
X69078571Y-45937128D02*
X69378571Y-45937128D01*
X69507143Y-46408557D02*
X69078571Y-46408557D01*
X69078571Y-46408557D02*
X69078571Y-45508557D01*
X69078571Y-45508557D02*
X69507143Y-45508557D01*
X70407143Y-46322842D02*
X70364286Y-46365700D01*
X70364286Y-46365700D02*
X70235714Y-46408557D01*
X70235714Y-46408557D02*
X70150000Y-46408557D01*
X70150000Y-46408557D02*
X70021429Y-46365700D01*
X70021429Y-46365700D02*
X69935714Y-46279985D01*
X69935714Y-46279985D02*
X69892857Y-46194271D01*
X69892857Y-46194271D02*
X69850000Y-46022842D01*
X69850000Y-46022842D02*
X69850000Y-45894271D01*
X69850000Y-45894271D02*
X69892857Y-45722842D01*
X69892857Y-45722842D02*
X69935714Y-45637128D01*
X69935714Y-45637128D02*
X70021429Y-45551414D01*
X70021429Y-45551414D02*
X70150000Y-45508557D01*
X70150000Y-45508557D02*
X70235714Y-45508557D01*
X70235714Y-45508557D02*
X70364286Y-45551414D01*
X70364286Y-45551414D02*
X70407143Y-45594271D01*
X70664286Y-45508557D02*
X71178572Y-45508557D01*
X70921429Y-46408557D02*
X70921429Y-45508557D01*
X72421428Y-46751414D02*
X72378571Y-46708557D01*
X72378571Y-46708557D02*
X72292857Y-46579985D01*
X72292857Y-46579985D02*
X72250000Y-46494271D01*
X72250000Y-46494271D02*
X72207142Y-46365700D01*
X72207142Y-46365700D02*
X72164285Y-46151414D01*
X72164285Y-46151414D02*
X72164285Y-45979985D01*
X72164285Y-45979985D02*
X72207142Y-45765700D01*
X72207142Y-45765700D02*
X72250000Y-45637128D01*
X72250000Y-45637128D02*
X72292857Y-45551414D01*
X72292857Y-45551414D02*
X72378571Y-45422842D01*
X72378571Y-45422842D02*
X72421428Y-45379985D01*
X72764285Y-46408557D02*
X72764285Y-45508557D01*
X73149999Y-46365700D02*
X73278571Y-46408557D01*
X73278571Y-46408557D02*
X73492856Y-46408557D01*
X73492856Y-46408557D02*
X73578571Y-46365700D01*
X73578571Y-46365700D02*
X73621428Y-46322842D01*
X73621428Y-46322842D02*
X73664285Y-46237128D01*
X73664285Y-46237128D02*
X73664285Y-46151414D01*
X73664285Y-46151414D02*
X73621428Y-46065700D01*
X73621428Y-46065700D02*
X73578571Y-46022842D01*
X73578571Y-46022842D02*
X73492856Y-45979985D01*
X73492856Y-45979985D02*
X73321428Y-45937128D01*
X73321428Y-45937128D02*
X73235713Y-45894271D01*
X73235713Y-45894271D02*
X73192856Y-45851414D01*
X73192856Y-45851414D02*
X73149999Y-45765700D01*
X73149999Y-45765700D02*
X73149999Y-45679985D01*
X73149999Y-45679985D02*
X73192856Y-45594271D01*
X73192856Y-45594271D02*
X73235713Y-45551414D01*
X73235713Y-45551414D02*
X73321428Y-45508557D01*
X73321428Y-45508557D02*
X73535713Y-45508557D01*
X73535713Y-45508557D02*
X73664285Y-45551414D01*
X74221428Y-45508557D02*
X74392856Y-45508557D01*
X74392856Y-45508557D02*
X74478571Y-45551414D01*
X74478571Y-45551414D02*
X74564285Y-45637128D01*
X74564285Y-45637128D02*
X74607142Y-45808557D01*
X74607142Y-45808557D02*
X74607142Y-46108557D01*
X74607142Y-46108557D02*
X74564285Y-46279985D01*
X74564285Y-46279985D02*
X74478571Y-46365700D01*
X74478571Y-46365700D02*
X74392856Y-46408557D01*
X74392856Y-46408557D02*
X74221428Y-46408557D01*
X74221428Y-46408557D02*
X74135714Y-46365700D01*
X74135714Y-46365700D02*
X74049999Y-46279985D01*
X74049999Y-46279985D02*
X74007142Y-46108557D01*
X74007142Y-46108557D02*
X74007142Y-45808557D01*
X74007142Y-45808557D02*
X74049999Y-45637128D01*
X74049999Y-45637128D02*
X74135714Y-45551414D01*
X74135714Y-45551414D02*
X74221428Y-45508557D01*
X74907142Y-46751414D02*
X74949999Y-46708557D01*
X74949999Y-46708557D02*
X75035713Y-46579985D01*
X75035713Y-46579985D02*
X75078571Y-46494271D01*
X75078571Y-46494271D02*
X75121428Y-46365700D01*
X75121428Y-46365700D02*
X75164285Y-46151414D01*
X75164285Y-46151414D02*
X75164285Y-45979985D01*
X75164285Y-45979985D02*
X75121428Y-45765700D01*
X75121428Y-45765700D02*
X75078571Y-45637128D01*
X75078571Y-45637128D02*
X75035713Y-45551414D01*
X75035713Y-45551414D02*
X74949999Y-45422842D01*
X74949999Y-45422842D02*
X74907142Y-45379985D01*
X8666666Y-46454819D02*
X8666666Y-47169104D01*
X8666666Y-47169104D02*
X8619047Y-47311961D01*
X8619047Y-47311961D02*
X8523809Y-47407200D01*
X8523809Y-47407200D02*
X8380952Y-47454819D01*
X8380952Y-47454819D02*
X8285714Y-47454819D01*
X9666666Y-47454819D02*
X9095238Y-47454819D01*
X9380952Y-47454819D02*
X9380952Y-46454819D01*
X9380952Y-46454819D02*
X9285714Y-46597676D01*
X9285714Y-46597676D02*
X9190476Y-46692914D01*
X9190476Y-46692914D02*
X9095238Y-46740533D01*
X26166666Y-46454819D02*
X26166666Y-47169104D01*
X26166666Y-47169104D02*
X26119047Y-47311961D01*
X26119047Y-47311961D02*
X26023809Y-47407200D01*
X26023809Y-47407200D02*
X25880952Y-47454819D01*
X25880952Y-47454819D02*
X25785714Y-47454819D01*
X26595238Y-46550057D02*
X26642857Y-46502438D01*
X26642857Y-46502438D02*
X26738095Y-46454819D01*
X26738095Y-46454819D02*
X26976190Y-46454819D01*
X26976190Y-46454819D02*
X27071428Y-46502438D01*
X27071428Y-46502438D02*
X27119047Y-46550057D01*
X27119047Y-46550057D02*
X27166666Y-46645295D01*
X27166666Y-46645295D02*
X27166666Y-46740533D01*
X27166666Y-46740533D02*
X27119047Y-46883390D01*
X27119047Y-46883390D02*
X26547619Y-47454819D01*
X26547619Y-47454819D02*
X27166666Y-47454819D01*
X46666666Y-46454819D02*
X46666666Y-47169104D01*
X46666666Y-47169104D02*
X46619047Y-47311961D01*
X46619047Y-47311961D02*
X46523809Y-47407200D01*
X46523809Y-47407200D02*
X46380952Y-47454819D01*
X46380952Y-47454819D02*
X46285714Y-47454819D01*
X47047619Y-46454819D02*
X47666666Y-46454819D01*
X47666666Y-46454819D02*
X47333333Y-46835771D01*
X47333333Y-46835771D02*
X47476190Y-46835771D01*
X47476190Y-46835771D02*
X47571428Y-46883390D01*
X47571428Y-46883390D02*
X47619047Y-46931009D01*
X47619047Y-46931009D02*
X47666666Y-47026247D01*
X47666666Y-47026247D02*
X47666666Y-47264342D01*
X47666666Y-47264342D02*
X47619047Y-47359580D01*
X47619047Y-47359580D02*
X47571428Y-47407200D01*
X47571428Y-47407200D02*
X47476190Y-47454819D01*
X47476190Y-47454819D02*
X47190476Y-47454819D01*
X47190476Y-47454819D02*
X47095238Y-47407200D01*
X47095238Y-47407200D02*
X47047619Y-47359580D01*
X69666666Y-46454819D02*
X69666666Y-47169104D01*
X69666666Y-47169104D02*
X69619047Y-47311961D01*
X69619047Y-47311961D02*
X69523809Y-47407200D01*
X69523809Y-47407200D02*
X69380952Y-47454819D01*
X69380952Y-47454819D02*
X69285714Y-47454819D01*
X70571428Y-46788152D02*
X70571428Y-47454819D01*
X70333333Y-46407200D02*
X70095238Y-47121485D01*
X70095238Y-47121485D02*
X70714285Y-47121485D01*
X18954819Y-23333333D02*
X19669104Y-23333333D01*
X19669104Y-23333333D02*
X19811961Y-23380952D01*
X19811961Y-23380952D02*
X19907200Y-23476190D01*
X19907200Y-23476190D02*
X19954819Y-23619047D01*
X19954819Y-23619047D02*
X19954819Y-23714285D01*
X18954819Y-22380952D02*
X18954819Y-22857142D01*
X18954819Y-22857142D02*
X19431009Y-22904761D01*
X19431009Y-22904761D02*
X19383390Y-22857142D01*
X19383390Y-22857142D02*
X19335771Y-22761904D01*
X19335771Y-22761904D02*
X19335771Y-22523809D01*
X19335771Y-22523809D02*
X19383390Y-22428571D01*
X19383390Y-22428571D02*
X19431009Y-22380952D01*
X19431009Y-22380952D02*
X19526247Y-22333333D01*
X19526247Y-22333333D02*
X19764342Y-22333333D01*
X19764342Y-22333333D02*
X19859580Y-22380952D01*
X19859580Y-22380952D02*
X19907200Y-22428571D01*
X19907200Y-22428571D02*
X19954819Y-22523809D01*
X19954819Y-22523809D02*
X19954819Y-22761904D01*
X19954819Y-22761904D02*
X19907200Y-22857142D01*
X19907200Y-22857142D02*
X19859580Y-22904761D01*
X44354819Y-23333333D02*
X45069104Y-23333333D01*
X45069104Y-23333333D02*
X45211961Y-23380952D01*
X45211961Y-23380952D02*
X45307200Y-23476190D01*
X45307200Y-23476190D02*
X45354819Y-23619047D01*
X45354819Y-23619047D02*
X45354819Y-23714285D01*
X44354819Y-22428571D02*
X44354819Y-22619047D01*
X44354819Y-22619047D02*
X44402438Y-22714285D01*
X44402438Y-22714285D02*
X44450057Y-22761904D01*
X44450057Y-22761904D02*
X44592914Y-22857142D01*
X44592914Y-22857142D02*
X44783390Y-22904761D01*
X44783390Y-22904761D02*
X45164342Y-22904761D01*
X45164342Y-22904761D02*
X45259580Y-22857142D01*
X45259580Y-22857142D02*
X45307200Y-22809523D01*
X45307200Y-22809523D02*
X45354819Y-22714285D01*
X45354819Y-22714285D02*
X45354819Y-22523809D01*
X45354819Y-22523809D02*
X45307200Y-22428571D01*
X45307200Y-22428571D02*
X45259580Y-22380952D01*
X45259580Y-22380952D02*
X45164342Y-22333333D01*
X45164342Y-22333333D02*
X44926247Y-22333333D01*
X44926247Y-22333333D02*
X44831009Y-22380952D01*
X44831009Y-22380952D02*
X44783390Y-22428571D01*
X44783390Y-22428571D02*
X44735771Y-22523809D01*
X44735771Y-22523809D02*
X44735771Y-22714285D01*
X44735771Y-22714285D02*
X44783390Y-22809523D01*
X44783390Y-22809523D02*
X44831009Y-22857142D01*
X44831009Y-22857142D02*
X44926247Y-22904761D01*
X34666666Y-4454819D02*
X34666666Y-5169104D01*
X34666666Y-5169104D02*
X34619047Y-5311961D01*
X34619047Y-5311961D02*
X34523809Y-5407200D01*
X34523809Y-5407200D02*
X34380952Y-5454819D01*
X34380952Y-5454819D02*
X34285714Y-5454819D01*
X35047619Y-4454819D02*
X35714285Y-4454819D01*
X35714285Y-4454819D02*
X35285714Y-5454819D01*
X72238095Y-11454819D02*
X72238095Y-12264342D01*
X72238095Y-12264342D02*
X72285714Y-12359580D01*
X72285714Y-12359580D02*
X72333333Y-12407200D01*
X72333333Y-12407200D02*
X72428571Y-12454819D01*
X72428571Y-12454819D02*
X72619047Y-12454819D01*
X72619047Y-12454819D02*
X72714285Y-12407200D01*
X72714285Y-12407200D02*
X72761904Y-12359580D01*
X72761904Y-12359580D02*
X72809523Y-12264342D01*
X72809523Y-12264342D02*
X72809523Y-11454819D01*
X73809523Y-12454819D02*
X73238095Y-12454819D01*
X73523809Y-12454819D02*
X73523809Y-11454819D01*
X73523809Y-11454819D02*
X73428571Y-11597676D01*
X73428571Y-11597676D02*
X73333333Y-11692914D01*
X73333333Y-11692914D02*
X73238095Y-11740533D01*
X31454819Y-33761904D02*
X32264342Y-33761904D01*
X32264342Y-33761904D02*
X32359580Y-33714285D01*
X32359580Y-33714285D02*
X32407200Y-33666666D01*
X32407200Y-33666666D02*
X32454819Y-33571428D01*
X32454819Y-33571428D02*
X32454819Y-33380952D01*
X32454819Y-33380952D02*
X32407200Y-33285714D01*
X32407200Y-33285714D02*
X32359580Y-33238095D01*
X32359580Y-33238095D02*
X32264342Y-33190476D01*
X32264342Y-33190476D02*
X31454819Y-33190476D01*
X31550057Y-32761904D02*
X31502438Y-32714285D01*
X31502438Y-32714285D02*
X31454819Y-32619047D01*
X31454819Y-32619047D02*
X31454819Y-32380952D01*
X31454819Y-32380952D02*
X31502438Y-32285714D01*
X31502438Y-32285714D02*
X31550057Y-32238095D01*
X31550057Y-32238095D02*
X31645295Y-32190476D01*
X31645295Y-32190476D02*
X31740533Y-32190476D01*
X31740533Y-32190476D02*
X31883390Y-32238095D01*
X31883390Y-32238095D02*
X32454819Y-32809523D01*
X32454819Y-32809523D02*
X32454819Y-32190476D01*
X25738095Y-25954819D02*
X25738095Y-26764342D01*
X25738095Y-26764342D02*
X25785714Y-26859580D01*
X25785714Y-26859580D02*
X25833333Y-26907200D01*
X25833333Y-26907200D02*
X25928571Y-26954819D01*
X25928571Y-26954819D02*
X26119047Y-26954819D01*
X26119047Y-26954819D02*
X26214285Y-26907200D01*
X26214285Y-26907200D02*
X26261904Y-26859580D01*
X26261904Y-26859580D02*
X26309523Y-26764342D01*
X26309523Y-26764342D02*
X26309523Y-25954819D01*
X26690476Y-25954819D02*
X27309523Y-25954819D01*
X27309523Y-25954819D02*
X26976190Y-26335771D01*
X26976190Y-26335771D02*
X27119047Y-26335771D01*
X27119047Y-26335771D02*
X27214285Y-26383390D01*
X27214285Y-26383390D02*
X27261904Y-26431009D01*
X27261904Y-26431009D02*
X27309523Y-26526247D01*
X27309523Y-26526247D02*
X27309523Y-26764342D01*
X27309523Y-26764342D02*
X27261904Y-26859580D01*
X27261904Y-26859580D02*
X27214285Y-26907200D01*
X27214285Y-26907200D02*
X27119047Y-26954819D01*
X27119047Y-26954819D02*
X26833333Y-26954819D01*
X26833333Y-26954819D02*
X26738095Y-26907200D01*
X26738095Y-26907200D02*
X26690476Y-26859580D01*
X46238095Y-25954819D02*
X46238095Y-26764342D01*
X46238095Y-26764342D02*
X46285714Y-26859580D01*
X46285714Y-26859580D02*
X46333333Y-26907200D01*
X46333333Y-26907200D02*
X46428571Y-26954819D01*
X46428571Y-26954819D02*
X46619047Y-26954819D01*
X46619047Y-26954819D02*
X46714285Y-26907200D01*
X46714285Y-26907200D02*
X46761904Y-26859580D01*
X46761904Y-26859580D02*
X46809523Y-26764342D01*
X46809523Y-26764342D02*
X46809523Y-25954819D01*
X47714285Y-26288152D02*
X47714285Y-26954819D01*
X47476190Y-25907200D02*
X47238095Y-26621485D01*
X47238095Y-26621485D02*
X47857142Y-26621485D01*
X69238095Y-28954819D02*
X69238095Y-29764342D01*
X69238095Y-29764342D02*
X69285714Y-29859580D01*
X69285714Y-29859580D02*
X69333333Y-29907200D01*
X69333333Y-29907200D02*
X69428571Y-29954819D01*
X69428571Y-29954819D02*
X69619047Y-29954819D01*
X69619047Y-29954819D02*
X69714285Y-29907200D01*
X69714285Y-29907200D02*
X69761904Y-29859580D01*
X69761904Y-29859580D02*
X69809523Y-29764342D01*
X69809523Y-29764342D02*
X69809523Y-28954819D01*
X70761904Y-28954819D02*
X70285714Y-28954819D01*
X70285714Y-28954819D02*
X70238095Y-29431009D01*
X70238095Y-29431009D02*
X70285714Y-29383390D01*
X70285714Y-29383390D02*
X70380952Y-29335771D01*
X70380952Y-29335771D02*
X70619047Y-29335771D01*
X70619047Y-29335771D02*
X70714285Y-29383390D01*
X70714285Y-29383390D02*
X70761904Y-29431009D01*
X70761904Y-29431009D02*
X70809523Y-29526247D01*
X70809523Y-29526247D02*
X70809523Y-29764342D01*
X70809523Y-29764342D02*
X70761904Y-29859580D01*
X70761904Y-29859580D02*
X70714285Y-29907200D01*
X70714285Y-29907200D02*
X70619047Y-29954819D01*
X70619047Y-29954819D02*
X70380952Y-29954819D01*
X70380952Y-29954819D02*
X70285714Y-29907200D01*
X70285714Y-29907200D02*
X70238095Y-29859580D01*
X8238095Y-11454819D02*
X8238095Y-12264342D01*
X8238095Y-12264342D02*
X8285714Y-12359580D01*
X8285714Y-12359580D02*
X8333333Y-12407200D01*
X8333333Y-12407200D02*
X8428571Y-12454819D01*
X8428571Y-12454819D02*
X8619047Y-12454819D01*
X8619047Y-12454819D02*
X8714285Y-12407200D01*
X8714285Y-12407200D02*
X8761904Y-12359580D01*
X8761904Y-12359580D02*
X8809523Y-12264342D01*
X8809523Y-12264342D02*
X8809523Y-11454819D01*
X9714285Y-11454819D02*
X9523809Y-11454819D01*
X9523809Y-11454819D02*
X9428571Y-11502438D01*
X9428571Y-11502438D02*
X9380952Y-11550057D01*
X9380952Y-11550057D02*
X9285714Y-11692914D01*
X9285714Y-11692914D02*
X9238095Y-11883390D01*
X9238095Y-11883390D02*
X9238095Y-12264342D01*
X9238095Y-12264342D02*
X9285714Y-12359580D01*
X9285714Y-12359580D02*
X9333333Y-12407200D01*
X9333333Y-12407200D02*
X9428571Y-12454819D01*
X9428571Y-12454819D02*
X9619047Y-12454819D01*
X9619047Y-12454819D02*
X9714285Y-12407200D01*
X9714285Y-12407200D02*
X9761904Y-12359580D01*
X9761904Y-12359580D02*
X9809523Y-12264342D01*
X9809523Y-12264342D02*
X9809523Y-12026247D01*
X9809523Y-12026247D02*
X9761904Y-11931009D01*
X9761904Y-11931009D02*
X9714285Y-11883390D01*
X9714285Y-11883390D02*
X9619047Y-11835771D01*
X9619047Y-11835771D02*
X9428571Y-11835771D01*
X9428571Y-11835771D02*
X9333333Y-11883390D01*
X9333333Y-11883390D02*
X9285714Y-11931009D01*
X9285714Y-11931009D02*
X9238095Y-12026247D01*
M02*
